<?xml version="1.0" encoding="UTF-8"?>
<!DOCTYPE svg PUBLIC "-//W3C//DTD SVG 1.1//EN" "http://www.w3.org/Graphics/SVG/1.1/DTD/svg11.dtd">
<svg xmlns="http://www.w3.org/2000/svg" version="1.1" width="200px" height="200px" style="shape-rendering:geometricPrecision; text-rendering:geometricPrecision; image-rendering:optimizeQuality; fill-rule:evenodd; clip-rule:evenodd" xmlns:xlink="http://www.w3.org/1999/xlink">
<g><path style="opacity:1" fill="#fdfcfc" d="M -0.5,-0.5 C 66.1667,-0.5 132.833,-0.5 199.5,-0.5C 199.5,66.1667 199.5,132.833 199.5,199.5C 132.833,199.5 66.1667,199.5 -0.5,199.5C -0.5,132.833 -0.5,66.1667 -0.5,-0.5 Z"/></g>
<g><path style="opacity:1" fill="#5d5d5d" d="M 45.5,45.5 C 57.6895,44.3206 69.3561,46.1539 80.5,51C 82.9757,52.3088 84.9757,54.1421 86.5,56.5C 83.6667,60.8333 80.8333,65.1667 78,69.5C 69.8604,63.4022 60.6937,61.2356 50.5,63C 33.237,68.9877 27.4037,80.8211 33,98.5C 39.7071,110.411 49.8738,115.245 63.5,113C 69.9933,111.753 75.66,108.92 80.5,104.5C 83.5513,108.769 86.2179,113.269 88.5,118C 85.7331,121.748 82.0664,124.414 77.5,126C 60.0978,133.017 43.4312,131.684 27.5,122C 14.611,110.338 9.44432,95.8377 12,78.5C 17.1221,61.2102 28.2887,50.2102 45.5,45.5 Z"/></g>
<g><path style="opacity:1" fill="#2d2c2b" d="M 115.5,45.5 C 123.971,45.0499 132.304,45.8833 140.5,48C 144.704,49.5956 148.371,51.9289 151.5,55C 149.557,59.72 147.224,64.22 144.5,68.5C 137.382,62.961 129.382,61.1276 120.5,63C 113.841,65.6332 112.841,69.6332 117.5,75C 125.416,78.8603 133.416,82.527 141.5,86C 154.645,95.0609 157.145,106.561 149,120.5C 139.348,128.703 128.182,131.87 115.5,130C 106.316,128.574 98.3161,124.741 91.5,118.5C 94.4192,113.66 97.5859,108.994 101,104.5C 107.843,111.114 116.01,113.948 125.5,113C 134.284,110.701 135.617,106.368 129.5,100C 121.014,96.2565 112.681,92.2565 104.5,88C 95.4225,81.4435 92.2558,72.6101 95,61.5C 99.7359,53.3929 106.569,48.0596 115.5,45.5 Z"/></g>
<g><path style="opacity:1" fill="#f5b6ba" d="M 161.5,45.5 C 169.5,45.5 177.5,45.5 185.5,45.5C 185.5,50.8333 185.5,56.1667 185.5,61.5C 177.5,61.5 169.5,61.5 161.5,61.5C 161.5,56.1667 161.5,50.8333 161.5,45.5 Z"/></g>
<g><path style="opacity:1" fill="#fcc311" d="M 161.5,63.5 C 169.5,62.1667 177.5,62.1667 185.5,63.5C 185.833,82.1786 185.5,100.845 184.5,119.5C 182.139,117.436 179.806,117.77 177.5,120.5C 176.167,119.5 174.833,118.5 173.5,117.5C 172.167,118.5 170.833,119.5 169.5,120.5C 168.893,120.376 168.56,120.043 168.5,119.5C 169.497,101.007 169.83,82.3408 169.5,63.5C 166.833,63.5 164.167,63.5 161.5,63.5 Z"/></g>
<g><path style="opacity:1" fill="#fef3a6" d="M 161.5,63.5 C 161.167,82.1786 161.5,100.845 162.5,119.5C 164.353,117.262 166.353,117.262 168.5,119.5C 168.56,120.043 168.893,120.376 169.5,120.5C 170.833,119.5 172.167,118.5 173.5,117.5C 174.833,118.5 176.167,119.5 177.5,120.5C 179.806,117.77 182.139,117.436 184.5,119.5C 185.5,100.845 185.833,82.1786 185.5,63.5C 186.662,82.3289 186.829,101.329 186,120.5C 183.636,123.69 181.136,126.69 178.5,129.5C 175.167,129.5 171.833,129.5 168.5,129.5C 165.864,126.69 163.364,123.69 161,120.5C 160.171,101.329 160.338,82.3289 161.5,63.5 Z"/></g>
<g><path style="opacity:1" fill="#ffed03" d="M 161.5,63.5 C 164.167,63.5 166.833,63.5 169.5,63.5C 169.83,82.3408 169.497,101.007 168.5,119.5C 166.353,117.262 164.353,117.262 162.5,119.5C 161.5,100.845 161.167,82.1786 161.5,63.5 Z"/></g>
<g><path style="opacity:1" fill="#e95137" d="M 168.5,129.5 C 171.833,129.5 175.167,129.5 178.5,129.5C 175.167,137.5 171.833,137.5 168.5,129.5 Z"/></g>
<g><path style="opacity:1" fill="#e63f2d" d="M 74.5,134.5 C 79.5483,134.127 84.215,135.294 88.5,138C 91.1667,141 93.8333,144 96.5,147C 104.314,149.927 109.981,147.594 113.5,140C 121.167,134 128.833,134 136.5,140C 138.906,145.245 142.906,148.412 148.5,149.5C 150.299,149.423 151.966,148.923 153.5,148C 156.734,144.855 159.734,141.522 162.5,138C 164.586,137.443 165.919,138.276 166.5,140.5C 155.248,158.464 143.248,158.964 130.5,142C 126.803,140.101 123.136,140.101 119.5,142C 116.833,145 114.167,148 111.5,151C 104.049,154.801 97.0492,154.135 90.5,149C 87.3647,141.852 82.0314,139.185 74.5,141C 70.3947,144.194 66.728,147.86 63.5,152C 57.7862,155.155 52.1195,155.155 46.5,152C 43.462,149.297 40.7954,146.297 38.5,143C 32.2006,139.049 26.8672,140.049 22.5,146C 20.5355,146.624 18.8689,146.124 17.5,144.5C 23.1108,135.355 30.7775,133.188 40.5,138C 43.538,140.703 46.2046,143.703 48.5,147C 57.3034,150.777 63.6368,148.11 67.5,139C 69.8981,137.476 72.2314,135.976 74.5,134.5 Z"/></g>
</svg>
