<?xml version="1.0" encoding="UTF-8"?>
<!DOCTYPE svg PUBLIC "-//W3C//DTD SVG 1.1//EN" "http://www.w3.org/Graphics/SVG/1.1/DTD/svg11.dtd">
<svg xmlns="http://www.w3.org/2000/svg" version="1.1" width="254px" height="82px" style="shape-rendering:geometricPrecision; text-rendering:geometricPrecision; image-rendering:optimizeQuality; fill-rule:evenodd; clip-rule:evenodd" xmlns:xlink="http://www.w3.org/1999/xlink">
<g><path style="opacity:1" fill="#fbfcfb" d="M -0.5,-0.5 C 84.1667,-0.5 168.833,-0.5 253.5,-0.5C 253.5,26.8333 253.5,54.1667 253.5,81.5C 168.833,81.5 84.1667,81.5 -0.5,81.5C -0.5,54.1667 -0.5,26.8333 -0.5,-0.5 Z"/></g>
<g><path style="opacity:1" fill="#6187d5" d="M 69.5,11.5 C 62.1325,10.4692 54.7992,9.46925 47.5,8.5C 41.7409,9.52858 36.4075,11.5286 31.5,14.5C 31.5,14.1667 31.5,13.8333 31.5,13.5C 37.1213,8.75145 43.788,6.75145 51.5,7.5C 56.2227,7.52139 60.8894,8.02139 65.5,9C 67.0664,9.6082 68.3998,10.4415 69.5,11.5 Z"/></g>
<g><path style="opacity:1" fill="#214eb6" d="M 47.5,8.5 C 54.7992,9.46925 62.1325,10.4692 69.5,11.5C 69.8333,11.5 70.1667,11.5 70.5,11.5C 71.6153,14.3133 70.782,16.6466 68,18.5C 67.6174,17.944 67.1174,17.6107 66.5,17.5C 62.4293,13.2994 57.4293,10.9661 51.5,10.5C 50.1667,9.83333 48.8333,9.16667 47.5,8.5 Z"/></g>
<g><path style="opacity:1" fill="#a9c1e5" d="M 31.5,13.5 C 31.5,13.8333 31.5,14.1667 31.5,14.5C 29.5273,15.806 27.8606,17.4727 26.5,19.5C 25.135,21.8598 23.135,23.5265 20.5,24.5C 22.6199,19.2376 26.2866,15.571 31.5,13.5 Z"/></g>
<g><path style="opacity:1" fill="#223460" d="M 70.5,11.5 C 72.9575,11.9261 74.1242,13.2594 74,15.5C 72.027,17.2279 70.1937,19.0613 68.5,21C 67.2506,21.7401 66.2506,21.5735 65.5,20.5C 66.404,19.791 66.7373,18.791 66.5,17.5C 67.1174,17.6107 67.6174,17.944 68,18.5C 70.782,16.6466 71.6153,14.3133 70.5,11.5 Z"/></g>
<g><path style="opacity:1" fill="#e0c243" d="M 152.5,15.5 C 150.739,17.593 149.406,19.9264 148.5,22.5C 145.297,17.9844 146.63,15.6511 152.5,15.5 Z"/></g>
<g><path style="opacity:1" fill="#615026" d="M 152.5,15.5 C 153.5,15.8333 154.167,16.5 154.5,17.5C 153.581,20.0892 151.914,22.0892 149.5,23.5C 148.833,23.5 148.5,23.1667 148.5,22.5C 149.406,19.9264 150.739,17.593 152.5,15.5 Z"/></g>
<g><path style="opacity:1" fill="#d8d6da" d="M 154.5,17.5 C 159.529,19.5169 160.362,22.5169 157,26.5C 153.579,29.2818 150.745,28.9485 148.5,25.5C 148.863,24.8165 149.196,24.1499 149.5,23.5C 151.914,22.0892 153.581,20.0892 154.5,17.5 Z"/></g>
<g><path style="opacity:1" fill="#a9bee1" d="M 20.5,24.5 C 18.7014,30.6979 17.7014,37.0312 17.5,43.5C 15.8064,36.799 16.8064,30.4656 20.5,24.5 Z"/></g>
<g><path style="opacity:1" fill="#eabdba" d="M 99.5,31.5 C 98.1667,30.1667 96.8333,30.1667 95.5,31.5C 95.1667,31.5 94.8333,31.5 94.5,31.5C 91.8127,31.3359 89.146,31.5026 86.5,32C 88.0581,32.21 89.3915,32.71 90.5,33.5C 88.1432,33.6633 85.8098,33.4966 83.5,33C 86.0913,30.0068 89.4246,28.8402 93.5,29.5C 95.8333,29.8333 98.1667,30.1667 100.5,30.5C 100.376,31.1067 100.043,31.44 99.5,31.5 Z"/></g>
<g><path style="opacity:1" fill="#3b61be" d="M 232.5,31.5 C 233.441,33.4664 234.441,35.4664 235.5,37.5C 233.296,38.2063 231.296,39.2063 229.5,40.5C 229.626,34.7957 226.793,31.7957 221,31.5C 219.744,31.6483 218.577,31.9816 217.5,32.5C 217.158,31.6618 216.492,31.3284 215.5,31.5C 217.807,29.9532 220.473,29.2865 223.5,29.5C 226.737,29.3461 229.737,30.0127 232.5,31.5 Z"/></g>
<g><path style="opacity:1" fill="#396536" d="M 193.5,29.5 C 196.567,29.1205 197.567,30.1205 196.5,32.5C 194.704,33.7927 193.037,35.2927 191.5,37C 190.5,37.6667 189.5,37.6667 188.5,37C 189.381,36.2917 190.047,35.4584 190.5,34.5C 191.89,33.1007 192.89,31.4341 193.5,29.5 Z"/></g>
<g><path style="opacity:1" fill="#61a263" d="M 193.5,29.5 C 192.89,31.4341 191.89,33.1007 190.5,34.5C 188.71,33.0027 186.544,32.336 184,32.5C 181.225,32.4092 178.725,33.0759 176.5,34.5C 176.167,34.5 175.833,34.5 175.5,34.5C 175.5,33.8333 175.5,33.1667 175.5,32.5C 176.6,31.4415 177.934,30.6082 179.5,30C 184.155,29.5008 188.821,29.3342 193.5,29.5 Z"/></g>
<g><path style="opacity:1" fill="#0d2968" d="M 47.5,8.5 C 48.8333,9.16667 50.1667,9.83333 51.5,10.5C 46.3599,9.91034 41.6932,10.9103 37.5,13.5C 27.3876,20.0793 23.5543,29.4126 26,41.5C 26.7048,44.4757 27.8714,47.1423 29.5,49.5C 29.5,50.1667 29.5,50.8333 29.5,51.5C 28.5041,51.5858 27.6708,51.2524 27,50.5C 26.3613,47.4405 25.1946,44.6071 23.5,42C 22.9376,38.3458 22.271,34.8458 21.5,31.5C 22.6261,27.251 24.2928,23.251 26.5,19.5C 27.8606,17.4727 29.5273,15.806 31.5,14.5C 36.4075,11.5286 41.7409,9.52858 47.5,8.5 Z"/></g>
<g><path style="opacity:1" fill="#fbf8dd" d="M 143.5,31.5 C 144.222,31.9175 144.722,32.5842 145,33.5C 145.5,43.4944 145.666,53.4944 145.5,63.5C 144.67,55.0097 144.17,46.343 144,37.5C 141.571,36.1824 139.404,34.5158 137.5,32.5C 139.396,31.5344 141.396,31.2011 143.5,31.5 Z"/></g>
<g><path style="opacity:1" fill="#234584" d="M 215.5,31.5 C 216.492,31.3284 217.158,31.6618 217.5,32.5C 213.153,34.858 211.153,38.5247 211.5,43.5C 210.5,42.8333 209.5,42.1667 208.5,41.5C 208.925,38.8808 209.925,36.5475 211.5,34.5C 212.262,32.7376 213.596,31.7376 215.5,31.5 Z"/></g>
<g><path style="opacity:1" fill="#cfe1cd" d="M 190.5,34.5 C 190.047,35.4584 189.381,36.2917 188.5,37C 189.5,37.6667 190.5,37.6667 191.5,37C 193.037,35.2927 194.704,33.7927 196.5,32.5C 196.076,38.3184 193.076,39.9851 187.5,37.5C 186.126,36.2887 184.626,35.2887 183,34.5C 180.681,35.8713 178.181,36.5379 175.5,36.5C 175.833,35.8333 176.167,35.1667 176.5,34.5C 178.725,33.0759 181.225,32.4092 184,32.5C 186.544,32.336 188.71,33.0027 190.5,34.5 Z"/></g>
<g><path style="opacity:1" fill="#618dde" d="M 26.5,19.5 C 24.2928,23.251 22.6261,27.251 21.5,31.5C 21.0706,37.2689 20.0706,42.9356 18.5,48.5C 17.5489,47.0813 17.2155,45.4147 17.5,43.5C 17.7014,37.0312 18.7014,30.6979 20.5,24.5C 23.135,23.5265 25.135,21.8598 26.5,19.5 Z"/></g>
<g><path style="opacity:1" fill="#2e66cb" d="M 21.5,31.5 C 20.9458,37.3951 21.6124,43.0617 23.5,48.5C 21.9137,50.1727 21.2471,52.1727 21.5,54.5C 19.9925,52.8185 18.9925,50.8185 18.5,48.5C 20.0706,42.9356 21.0706,37.2689 21.5,31.5 Z"/></g>
<g><path style="opacity:1" fill="#efe097" d="M 154.5,30.5 C 151.794,30.5751 149.127,30.9084 146.5,31.5C 146.828,43.0123 146.495,54.3456 145.5,65.5C 145.5,64.8333 145.5,64.1667 145.5,63.5C 145.666,53.4944 145.5,43.4944 145,33.5C 144.722,32.5842 144.222,31.9175 143.5,31.5C 147.094,29.7303 150.76,29.3969 154.5,30.5 Z"/></g>
<g><path style="opacity:1" fill="#e0e3e3" d="M 51.5,10.5 C 57.4293,10.9661 62.4293,13.2994 66.5,17.5C 66.7373,18.791 66.404,19.791 65.5,20.5C 62.8393,17.074 59.3393,14.7407 55,13.5C 50.467,14.8885 45.967,16.2218 41.5,17.5C 41.762,18.9778 41.4287,20.3112 40.5,21.5C 35.6544,26.525 32.9878,32.525 32.5,39.5C 33.1667,43.8333 33.8333,48.1667 34.5,52.5C 34.2907,53.086 33.9574,53.586 33.5,54C 35.1412,55.129 36.1412,56.629 36.5,58.5C 35.5266,58.0133 34.5266,57.5133 33.5,57C 32.5119,54.833 31.1786,52.9997 29.5,51.5C 29.5,50.8333 29.5,50.1667 29.5,49.5C 29.1282,40.1916 30.6282,31.1916 34,22.5C 35.6837,20.6487 37.5171,18.982 39.5,17.5C 38.624,16.7492 37.624,16.2492 36.5,16C 37.2524,15.3292 37.5858,14.4959 37.5,13.5C 41.6932,10.9103 46.3599,9.91034 51.5,10.5 Z"/></g>
<g><path style="opacity:1" fill="#cbd0c7" d="M 175.5,36.5 C 175.351,37.552 175.517,38.552 176,39.5C 177.011,38.6634 178.178,38.33 179.5,38.5C 178.965,42.5107 178.298,46.5107 177.5,50.5C 177.692,52.5767 178.192,54.5767 179,56.5C 181.144,58.4662 182.644,60.7995 183.5,63.5C 182.448,63.6495 181.448,63.4828 180.5,63C 178.963,61.2927 177.296,59.7927 175.5,58.5C 174.032,54.2918 173.032,49.9585 172.5,45.5C 172.531,42.0737 173.531,39.0737 175.5,36.5 Z"/></g>
<g><path style="opacity:1" fill="#e87b6b" d="M 120.5,31.5 C 120.338,41.5911 119.672,51.5911 118.5,61.5C 117.859,51.1107 118.526,41.1107 120.5,31.5 Z"/></g>
<g><path style="opacity:1" fill="#a0d2a1" d="M 175.5,32.5 C 175.5,33.1667 175.5,33.8333 175.5,34.5C 174.167,35.1667 173.167,36.1667 172.5,37.5C 170.461,38.911 169.461,40.911 169.5,43.5C 168.034,44.347 167.2,45.6803 167,47.5C 166.503,50.146 166.336,52.8127 166.5,55.5C 163.634,45.562 166.634,37.8954 175.5,32.5 Z"/></g>
<g><path style="opacity:1" fill="#c0c2c3" d="M 37.5,13.5 C 37.5858,14.4959 37.2524,15.3292 36.5,16C 37.624,16.2492 38.624,16.7492 39.5,17.5C 37.5171,18.982 35.6837,20.6487 34,22.5C 30.6282,31.1916 29.1282,40.1916 29.5,49.5C 27.8714,47.1423 26.7048,44.4757 26,41.5C 23.5543,29.4126 27.3876,20.0793 37.5,13.5 Z"/></g>
<g><path style="opacity:1" fill="#d3563b" d="M 120.5,31.5 C 120.833,31.5 121.167,31.5 121.5,31.5C 121.832,42.1874 121.499,52.8541 120.5,63.5C 119.478,63.8555 118.811,64.5222 118.5,65.5C 116.127,65.138 113.793,65.8047 111.5,67.5C 110.198,65.9724 108.531,64.9724 106.5,64.5C 109.206,64.4249 111.873,64.0916 114.5,63.5C 116.483,63.8432 117.817,63.1765 118.5,61.5C 119.672,51.5911 120.338,41.5911 120.5,31.5 Z"/></g>
<g><path style="opacity:1" fill="#22511e" d="M 175.5,34.5 C 175.833,34.5 176.167,34.5 176.5,34.5C 176.167,35.1667 175.833,35.8333 175.5,36.5C 173.531,39.0737 172.531,42.0737 172.5,45.5C 173.032,49.9585 174.032,54.2918 175.5,58.5C 170.325,52.2785 169.325,45.2785 172.5,37.5C 173.167,36.1667 174.167,35.1667 175.5,34.5 Z"/></g>
<g><path style="opacity:1" fill="#83a3d6" d="M 211.5,34.5 C 209.925,36.5475 208.925,38.8808 208.5,41.5C 207.539,43.2646 207.205,45.2646 207.5,47.5C 205.631,49.6353 204.964,52.3019 205.5,55.5C 204.205,50.2765 204.372,44.9432 206,39.5C 207.076,36.921 208.909,35.2543 211.5,34.5 Z"/></g>
<g><path style="opacity:1" fill="#db7d6d" d="M 94.5,31.5 C 93.8578,42.18 93.1912,52.8466 92.5,63.5C 91.7784,63.0825 91.2784,62.4158 91,61.5C 90.5002,52.1726 90.3335,42.8393 90.5,33.5C 89.3915,32.71 88.0581,32.21 86.5,32C 89.146,31.5026 91.8127,31.3359 94.5,31.5 Z"/></g>
<g><path style="opacity:1" fill="#d0d0d2" d="M 99.5,31.5 C 99.3505,32.552 99.5172,33.552 100,34.5C 103.295,33.3057 104.795,34.639 104.5,38.5C 103.834,45.1527 103.334,51.8194 103,58.5C 102.583,59.756 101.75,60.4226 100.5,60.5C 99.7784,60.0825 99.2784,59.4158 99,58.5C 98.176,49.3238 98.3427,40.3238 99.5,31.5 Z"/></g>
<g><path style="opacity:1" fill="#5a1005" d="M 122.5,31.5 C 123.833,30.1667 125.167,30.1667 126.5,31.5C 125.506,41.9869 125.172,52.6536 125.5,63.5C 123.842,53.0391 122.842,42.3724 122.5,31.5 Z"/></g>
<g><path style="opacity:1" fill="#c2c1c1" d="M 126.5,31.5 C 126.608,33.7834 127.441,35.7834 129,37.5C 129.406,47.3412 129.573,57.0079 129.5,66.5C 127.97,65.7888 126.637,64.7888 125.5,63.5C 125.172,52.6536 125.506,41.9869 126.5,31.5 Z"/></g>
<g><path style="opacity:1" fill="#f3d256" d="M 154.5,30.5 C 154.5,30.8333 154.5,31.1667 154.5,31.5C 154.167,31.5 153.833,31.5 153.5,31.5C 152.778,32.5511 151.778,33.2178 150.5,33.5C 149.813,44.4015 149.146,55.4015 148.5,66.5C 147.391,66.5569 146.391,66.8902 145.5,67.5C 145.5,66.8333 145.5,66.1667 145.5,65.5C 146.495,54.3456 146.828,43.0123 146.5,31.5C 149.127,30.9084 151.794,30.5751 154.5,30.5 Z"/></g>
<g><path style="opacity:1" fill="#bf9b1d" d="M 150.5,33.5 C 151.144,44.8842 150.477,55.8842 148.5,66.5C 149.146,55.4015 149.813,44.4015 150.5,33.5 Z"/></g>
<g><path style="opacity:1" fill="#dde0e3" d="M 229.5,40.5 C 224.526,42.6519 219.526,44.8186 214.5,47C 220.259,46.9501 225.593,45.4501 230.5,42.5C 232.701,41.4336 235.035,40.767 237.5,40.5C 237.634,38.7085 237.301,37.0418 236.5,35.5C 237.232,34.1917 238.066,32.8584 239,31.5C 239.882,34.5524 241.716,36.8858 244.5,38.5C 244.324,40.6716 244.157,43.0049 244,45.5C 236.892,49.4703 229.392,52.4703 221.5,54.5C 222.095,57.6537 222.095,60.6537 221.5,63.5C 220.5,62.8333 219.5,62.1667 218.5,61.5C 213.937,56.373 211.604,50.373 211.5,43.5C 211.153,38.5247 213.153,34.858 217.5,32.5C 218.577,31.9816 219.744,31.6483 221,31.5C 226.793,31.7957 229.626,34.7957 229.5,40.5 Z"/></g>
<g><path style="opacity:1" fill="#3456a8" d="M 229.5,40.5 C 229.328,41.4916 229.662,42.1583 230.5,42.5C 225.593,45.4501 220.259,46.9501 214.5,47C 219.526,44.8186 224.526,42.6519 229.5,40.5 Z"/></g>
<g><path style="opacity:1" fill="#13316d" d="M 232.5,31.5 C 234.167,32.5 235.5,33.8333 236.5,35.5C 237.301,37.0418 237.634,38.7085 237.5,40.5C 235.035,40.767 232.701,41.4336 230.5,42.5C 229.662,42.1583 229.328,41.4916 229.5,40.5C 231.296,39.2063 233.296,38.2063 235.5,37.5C 234.441,35.4664 233.441,33.4664 232.5,31.5 Z"/></g>
<g><path style="opacity:1" fill="#0b41ae" d="M 21.5,31.5 C 22.271,34.8458 22.9376,38.3458 23.5,42C 25.1946,44.6071 26.3613,47.4405 27,50.5C 27.6708,51.2524 28.5041,51.5858 29.5,51.5C 31.1786,52.9997 32.5119,54.833 33.5,57C 34.5266,57.5133 35.5266,58.0133 36.5,58.5C 37.1667,59.5 37.8333,60.5 38.5,61.5C 39.9911,62.9131 40.6577,64.4131 40.5,66C 43.0037,66.6976 45.337,67.5309 47.5,68.5C 42.2969,68.3914 37.2969,67.3914 32.5,65.5C 31.1667,64.8333 29.8333,64.1667 28.5,63.5C 25.4531,61.0819 23.1198,58.0819 21.5,54.5C 21.2471,52.1727 21.9137,50.1727 23.5,48.5C 21.6124,43.0617 20.9458,37.3951 21.5,31.5 Z"/></g>
<g><path style="opacity:1" fill="#631207" d="M 95.5,31.5 C 96.8333,30.1667 98.1667,30.1667 99.5,31.5C 98.3427,40.3238 98.176,49.3238 99,58.5C 99.2784,59.4158 99.7784,60.0825 100.5,60.5C 100.557,61.609 100.89,62.609 101.5,63.5C 100.5,63.5 99.5,63.5 98.5,63.5C 98.5391,61.6412 97.7058,60.3079 96,59.5C 95.5745,49.9242 95.4078,40.5909 95.5,31.5 Z"/></g>
<g><path style="opacity:1" fill="#68bb68" d="M 169.5,43.5 C 169.5,45.8333 169.5,48.1667 169.5,50.5C 168.429,54.6776 168.429,59.0109 169.5,63.5C 167.98,61.1098 166.98,58.4432 166.5,55.5C 166.336,52.8127 166.503,50.146 167,47.5C 167.2,45.6803 168.034,44.347 169.5,43.5 Z"/></g>
<g><path style="opacity:1" fill="#4979db" d="M 70.5,47.5 C 71.1667,47.5 71.8333,47.5 72.5,47.5C 71.0846,52.5144 70.0846,57.5144 69.5,62.5C 69.6925,58.9872 69.0259,55.6538 67.5,52.5C 68.8397,51.0104 69.8397,49.3437 70.5,47.5 Z"/></g>
<g><path style="opacity:1" fill="#db958f" d="M 126.5,31.5 C 125.167,30.1667 123.833,30.1667 122.5,31.5C 122.167,31.5 121.833,31.5 121.5,31.5C 121.167,31.5 120.833,31.5 120.5,31.5C 118.526,41.1107 117.859,51.1107 118.5,61.5C 117.817,63.1765 116.483,63.8432 114.5,63.5C 115.209,62.596 116.209,62.2627 117.5,62.5C 117.5,52.8333 117.5,43.1667 117.5,33.5C 110.855,34.2086 110.188,33.0419 115.5,30C 119.541,29.1735 123.541,29.3401 127.5,30.5C 127.376,31.1067 127.043,31.44 126.5,31.5 Z"/></g>
<g><path style="opacity:1" fill="#a51a04" d="M 121.5,31.5 C 121.833,31.5 122.167,31.5 122.5,31.5C 122.842,42.3724 123.842,53.0391 125.5,63.5C 125.539,64.5832 125.873,65.5832 126.5,66.5C 123.844,67.6145 121.177,67.6145 118.5,66.5C 118.5,66.1667 118.5,65.8333 118.5,65.5C 118.811,64.5222 119.478,63.8555 120.5,63.5C 121.499,52.8541 121.832,42.1874 121.5,31.5 Z"/></g>
<g><path style="opacity:1" fill="#bec0bc" d="M 153.5,31.5 C 153.833,31.5 154.167,31.5 154.5,31.5C 154.461,33.3588 155.294,34.6921 157,35.5C 157.783,45.5469 157.617,55.5469 156.5,65.5C 155.5,65.5 154.5,65.5 153.5,65.5C 153.5,54.1667 153.5,42.8333 153.5,31.5 Z"/></g>
<g><path style="opacity:1" fill="#4773cf" d="M 207.5,47.5 C 208.62,51.4718 208.62,55.4718 207.5,59.5C 206.326,58.4863 205.66,57.153 205.5,55.5C 204.964,52.3019 205.631,49.6353 207.5,47.5 Z"/></g>
<g><path style="opacity:1" fill="#0e3491" d="M 208.5,41.5 C 209.5,42.1667 210.5,42.8333 211.5,43.5C 211.604,50.373 213.937,56.373 218.5,61.5C 217.022,61.762 215.689,61.4287 214.5,60.5C 211.19,56.4624 208.856,52.1291 207.5,47.5C 207.205,45.2646 207.539,43.2646 208.5,41.5 Z"/></g>
<g><path style="opacity:1" fill="#688ccf" d="M 70.5,47.5 C 69.8397,49.3437 68.8397,51.0104 67.5,52.5C 69.0259,55.6538 69.6925,58.9872 69.5,62.5C 68.8333,62.5 68.5,62.8333 68.5,63.5C 67.8333,63.8333 67.1667,64.1667 66.5,64.5C 66.5,59.8333 66.5,55.1667 66.5,50.5C 63.1501,50.665 59.8168,50.4983 56.5,50C 56.8333,49.6667 57.1667,49.3333 57.5,49C 61.6996,47.6326 66.0329,47.1326 70.5,47.5 Z"/></g>
<g><path style="opacity:1" fill="#37a737" d="M 169.5,50.5 C 169.678,56.1968 172.345,60.1968 177.5,62.5C 175.257,63.4742 172.924,63.8076 170.5,63.5C 170.167,63.5 169.833,63.5 169.5,63.5C 168.429,59.0109 168.429,54.6776 169.5,50.5 Z"/></g>
<g><path style="opacity:1" fill="#123d9a" d="M 72.5,47.5 C 74.1667,47.5 75.8333,47.5 77.5,47.5C 76.8333,48.8333 76.1667,50.1667 75.5,51.5C 74.5041,51.4142 73.6708,51.7476 73,52.5C 72.5804,56.1914 72.0804,59.8581 71.5,63.5C 70.5,63.5 69.5,63.5 68.5,63.5C 68.5,62.8333 68.8333,62.5 69.5,62.5C 70.0846,57.5144 71.0846,52.5144 72.5,47.5 Z"/></g>
<g><path style="opacity:1" fill="#0f48b6" d="M 207.5,47.5 C 208.856,52.1291 211.19,56.4624 214.5,60.5C 215.689,61.4287 217.022,61.762 218.5,61.5C 219.5,62.1667 220.5,62.8333 221.5,63.5C 223.153,63.6596 224.486,64.3263 225.5,65.5C 225.918,66.2216 226.584,66.7216 227.5,67C 221.47,67.4188 215.804,66.2522 210.5,63.5C 208.738,62.7377 207.738,61.4044 207.5,59.5C 208.62,55.4718 208.62,51.4718 207.5,47.5 Z"/></g>
<g><path style="opacity:1" fill="#c12b16" d="M 94.5,31.5 C 94.8333,31.5 95.1667,31.5 95.5,31.5C 95.4078,40.5909 95.5745,49.9242 96,59.5C 97.7058,60.3079 98.5391,61.6412 98.5,63.5C 99.5,63.5 100.5,63.5 101.5,63.5C 103.216,63.6287 104.883,63.962 106.5,64.5C 108.531,64.9724 110.198,65.9724 111.5,67.5C 105.773,67.7402 100.106,67.4069 94.5,66.5C 93.0937,66.0269 92.427,65.0269 92.5,63.5C 93.1912,52.8466 93.8578,42.18 94.5,31.5 Z"/></g>
<g><path style="opacity:1" fill="#776521" d="M 153.5,31.5 C 153.5,42.8333 153.5,54.1667 153.5,65.5C 154.5,65.5 155.5,65.5 156.5,65.5C 157.398,66.1577 158.398,66.8243 159.5,67.5C 154.682,68.8124 150.015,68.8124 145.5,67.5C 146.391,66.8902 147.391,66.5569 148.5,66.5C 150.477,55.8842 151.144,44.8842 150.5,33.5C 151.778,33.2178 152.778,32.5511 153.5,31.5 Z"/></g>
<g><path style="opacity:1" fill="#3a8f39" d="M 172.5,37.5 C 169.325,45.2785 170.325,52.2785 175.5,58.5C 177.296,59.7927 178.963,61.2927 180.5,63C 181.448,63.4828 182.448,63.6495 183.5,63.5C 186.697,65.4694 190.03,65.8028 193.5,64.5C 192.319,66.0672 190.653,66.9005 188.5,67C 184.179,67.499 179.846,67.6657 175.5,67.5C 173.251,66.9202 171.585,65.5869 170.5,63.5C 172.924,63.8076 175.257,63.4742 177.5,62.5C 172.345,60.1968 169.678,56.1968 169.5,50.5C 169.5,48.1667 169.5,45.8333 169.5,43.5C 169.461,40.911 170.461,38.911 172.5,37.5 Z"/></g>
<g><path style="opacity:1" fill="#1b3977" d="M 210.5,63.5 C 215.804,66.2522 221.47,67.4188 227.5,67C 226.584,66.7216 225.918,66.2216 225.5,65.5C 229.342,65.7609 233.009,65.0942 236.5,63.5C 237.665,64.8595 237.332,65.8595 235.5,66.5C 227.769,70.4455 220.102,70.4455 212.5,66.5C 211.833,65.5 211.167,64.5 210.5,63.5 Z"/></g>
<g><path style="opacity:1" fill="#2c55b0" d="M 38.5,61.5 C 47.3547,66.8204 56.688,67.8204 66.5,64.5C 65.6935,65.7281 64.6935,66.7281 63.5,67.5C 63.1583,68.3382 62.4916,68.6716 61.5,68.5C 57.0019,67.6246 52.3353,67.6246 47.5,68.5C 45.337,67.5309 43.0037,66.6976 40.5,66C 40.6577,64.4131 39.9911,62.9131 38.5,61.5 Z"/></g>
<g><path style="opacity:1" fill="#122552" d="M 75.5,51.5 C 75.5,56.1667 75.5,60.8333 75.5,65.5C 71.5,66.1667 67.5,66.8333 63.5,67.5C 64.6935,66.7281 65.6935,65.7281 66.5,64.5C 67.1667,64.1667 67.8333,63.8333 68.5,63.5C 69.5,63.5 70.5,63.5 71.5,63.5C 72.0804,59.8581 72.5804,56.1914 73,52.5C 73.6708,51.7476 74.5041,51.4142 75.5,51.5 Z"/></g>
<g><path style="opacity:1" fill="#681c0b" d="M 94.5,66.5 C 100.106,67.4069 105.773,67.7402 111.5,67.5C 106.728,69.6557 101.728,69.989 96.5,68.5C 95.5,68.1667 94.8333,67.5 94.5,66.5 Z"/></g>
<g><path style="opacity:1" fill="#6f2721" d="M 125.5,63.5 C 126.637,64.7888 127.97,65.7888 129.5,66.5C 131.199,66.3398 132.866,66.5065 134.5,67C 133.956,67.7172 133.289,68.2172 132.5,68.5C 128.888,69.5114 125.221,69.6781 121.5,69C 120.058,68.6232 119.058,67.7899 118.5,66.5C 121.177,67.6145 123.844,67.6145 126.5,66.5C 125.873,65.5832 125.539,64.5832 125.5,63.5 Z"/></g>
<g><path style="opacity:1" fill="#296025" d="M 186.5,69.5 C 183.5,69.5 180.5,69.5 177.5,69.5C 176.833,68.8333 176.167,68.1667 175.5,67.5C 179.846,67.6657 184.179,67.499 188.5,67C 190.653,66.9005 192.319,66.0672 193.5,64.5C 197.187,62.81 197.854,63.31 195.5,66C 192.541,67.6043 189.541,68.7709 186.5,69.5 Z"/></g>
<g><path style="opacity:1" fill="#cbced0" d="M 77.5,47.5 C 78.4327,49.8791 79.0994,52.7124 79.5,56C 78.5146,60.2047 78.3479,64.3714 79,68.5C 75.7904,70.4757 72.457,71.1424 69,70.5C 68.5172,71.448 68.3505,72.448 68.5,73.5C 56.3485,75.7603 44.6818,74.2603 33.5,69C 31.576,67.2502 29.9093,65.4169 28.5,63.5C 29.8333,64.1667 31.1667,64.8333 32.5,65.5C 34.4927,67.1632 36.8261,68.3299 39.5,69C 46.8517,69.5821 54.1851,69.4155 61.5,68.5C 62.4916,68.6716 63.1583,68.3382 63.5,67.5C 67.5,66.8333 71.5,66.1667 75.5,65.5C 75.5,60.8333 75.5,56.1667 75.5,51.5C 76.1667,50.1667 76.8333,48.8333 77.5,47.5 Z"/></g>
<g><path style="opacity:1" fill="#1a3471" d="M 32.5,65.5 C 37.2969,67.3914 42.2969,68.3914 47.5,68.5C 52.3353,67.6246 57.0019,67.6246 61.5,68.5C 54.1851,69.4155 46.8517,69.5821 39.5,69C 36.8261,68.3299 34.4927,67.1632 32.5,65.5 Z"/></g>
<g><path style="opacity:1" fill="#d1c6cb" d="M 118.5,65.5 C 118.5,65.8333 118.5,66.1667 118.5,66.5C 119.058,67.7899 120.058,68.6232 121.5,69C 125.221,69.6781 128.888,69.5114 132.5,68.5C 132.196,69.1499 131.863,69.8165 131.5,70.5C 127.508,71.7015 123.508,71.7015 119.5,70.5C 112.842,73.8511 106.009,74.1844 99,71.5C 97.6898,70.8699 96.8565,69.8699 96.5,68.5C 101.728,69.989 106.728,69.6557 111.5,67.5C 113.793,65.8047 116.127,65.138 118.5,65.5 Z"/></g>
<g><path style="opacity:1" fill="#d3d0d6" d="M 212.5,66.5 C 220.102,70.4455 227.769,70.4455 235.5,66.5C 235.369,67.2389 235.536,67.9056 236,68.5C 237.84,67.1669 238.34,67.3335 237.5,69C 238.308,69.3076 238.975,69.8076 239.5,70.5C 231.532,75.5348 223.532,75.7015 215.5,71C 213.859,69.871 212.859,68.371 212.5,66.5 Z"/></g>
<g><path style="opacity:1" fill="#d7d4d7" d="M 177.5,69.5 C 180.5,69.5 183.5,69.5 186.5,69.5C 190.238,68.9209 193.904,68.9209 197.5,69.5C 196.209,71.9592 194.209,73.4592 191.5,74C 186.207,73.5164 180.873,73.0164 175.5,72.5C 175.285,70.8212 175.952,69.8212 177.5,69.5 Z"/></g>
</svg>
