<?xml version="1.0" encoding="utf-8"?>
<!-- Generator: Adobe Illustrator 26.0.3, SVG Export Plug-In . SVG Version: 6.00 Build 0)  -->
<svg version="1.0" id="katman_1" xmlns="http://www.w3.org/2000/svg" xmlns:xlink="http://www.w3.org/1999/xlink" x="0px" y="0px"
	 viewBox="0 0 600 450" style="enable-background:new 0 0 600 450;" xml:space="preserve">
<style type="text/css">
	.st0{fill:#E8441E;}
</style>
<g>
	<g>
		<path class="st0" d="M154.8,187.5L154.8,187.5v61.2h35.9v-11.9h-22.9v-36.2C167.8,193.3,162,187.5,154.8,187.5z"/>
		<rect x="197.5" y="207" class="st0" width="12.5" height="41.7"/>
		<path class="st0" d="M300.2,230.7c0,4-1.9,7.8-7,7.8c-4.8,0-6.5-3.7-6.5-7.7V207h-12.5v27.4c0,8.9,5.4,15.4,14.6,15.4
			c4.4,0,9-1.8,11.9-6.1v5h11.8V207h-12.5L300.2,230.7L300.2,230.7z"/>
		<rect x="323.5" y="207" class="st0" width="12.5" height="41.7"/>
		<path class="st0" d="M474,222.8l-3.4-0.7c-3.6-0.8-5.2-1.5-5.2-3.7c0-2,2.1-3,4.6-3c2.4,0,4.8,0.7,4.8,4.3h12.7
			c-0.7-9.4-7.8-13.7-17.4-13.7c-9.5,0-17.4,4.8-17.4,13.3c0,8.5,6.5,11.4,13.8,12.9l4,0.8c3,0.7,4.8,1.5,4.8,3.8
			c0,2.4-2,3.5-5.2,3.5c-3.3,0-5.8-1.4-5.8-5.2h-13.1c0.6,10.3,8.4,14.7,19.2,14.7c10.1,0,17.8-4.7,17.8-14
			C488.4,227.4,482.2,224.6,474,222.8z"/>
		<path class="st0" d="M538,227.2c0-11.9-8.3-21.3-21.8-21.3c-12.9,0-22.3,9.8-22.3,21.9c0,12.1,8.9,21.9,22.1,21.9
			c11.1,0,18.6-5.7,21.1-14.6h-12c-1.8,3.1-4.7,4.6-8.9,4.6c-5.6,0-9.3-3.5-10.4-8.8h32.2L538,227.2L538,227.2z M506.4,222.8
			c1.5-4.1,4.9-6.8,9.8-6.8s8.4,2.6,9.7,6.8H506.4z"/>
		<path class="st0" d="M431.7,209.3c-3.4-2-7.3-3.2-11.5-3.2c-12.2,0-22.1,9.9-22.1,22.1c0,12.2,9.9,22.1,22.1,22.1
			c4.2,0,8.2-1.2,11.5-3.2v1.6h11.9V207h-11.9V209.3z M420.1,239.2c-6.1,0-11-4.9-11-11s4.9-11,11-11c6.1,0,11,4.9,11,11
			S426.3,239.2,420.1,239.2z"/>
		<path class="st0" d="M371.7,206.1c-4.8-0.3-9.2,0.9-13,3.2v-15.8c0-6.6-5.3-11.9-11.9-11.9l0,0v67h11.9v-1.6
			c3.4,2,7.3,3.2,11.5,3.2c12.7,0,22.9-10.8,22.1-23.7C391.6,215.7,382.7,206.8,371.7,206.1z M370.2,239.2c-6.1,0-11-4.9-11-11
			s4.9-11,11-11c6.1,0,11,4.9,11,11S376.4,239.2,370.2,239.2z"/>
		<path class="st0" d="M203.8,187.5c-4,0-7.3,3.3-7.3,7.3c0,4,3.3,7.3,7.3,7.3c4,0,7.3-3.3,7.3-7.3
			C211.1,190.8,207.8,187.5,203.8,187.5z"/>
		<path class="st0" d="M329.7,187.5c-4,0-7.3,3.3-7.3,7.3c0,4,3.3,7.3,7.3,7.3c4,0,7.3-3.3,7.3-7.3
			C337.1,190.8,333.8,187.5,329.7,187.5z"/>
		<path class="st0" d="M252.1,207v2.5c-3.8-2.3-8.2-3.6-13-3.3c-11,0.6-20,9.5-20.7,20.5c-0.9,12.9,9.3,23.7,22.1,23.7
			c4,0,7.7-1.1,11-2.9v17.7c0,6.9,5.6,12.5,12.5,12.5l0,0V263v-40v-16C263.8,207,252.1,207,252.1,207z M240.8,239.2
			c-6.1,0-11-4.9-11-11s4.9-11,11-11c6.1,0,11,4.9,11,11S246.9,239.2,240.8,239.2z"/>
		<g>
			<ellipse class="st0" cx="94" cy="185.9" rx="31.7" ry="12.7"/>
			<path class="st0" d="M94.8,241.9c-10.1,2.4-20.6,4.9-27.3,9.4c-3.4-2.1-5.2-4.5-5.2-6.7c0-10.1,16.8-13.9,33.1-17.6
				c11.7-2.6,23.7-5.4,30.4-10.8v8.9C125.8,234.4,110,238.2,94.8,241.9z"/>
			<path class="st0" d="M94.2,221.6c-12.4,2.8-25,5.7-31.9,11.6v-2c0-17.6,19.3-22.1,37.9-26.4c13.5-3.2,20.1-4.8,25.6-9.3v9.8
				C125.8,214.5,109.7,218.1,94.2,221.6z"/>
			<path class="st0" d="M125.8,236c-6.6,5.6-18.3,8.4-29.8,11.1c-8.2,2-16.6,4-22.6,6.9c5.4,1.9,12.5,3.2,20.6,3.2
				c18.5,0,31.7-6.7,31.7-12.7V236z"/>
		</g>
	</g>
</g>
</svg>
