<?xml version="1.0" encoding="UTF-8"?>
<!DOCTYPE svg PUBLIC "-//W3C//DTD SVG 1.1//EN" "http://www.w3.org/Graphics/SVG/1.1/DTD/svg11.dtd">
<svg xmlns="http://www.w3.org/2000/svg" version="1.1" width="264px" height="75px" style="shape-rendering:geometricPrecision; text-rendering:geometricPrecision; image-rendering:optimizeQuality; fill-rule:evenodd; clip-rule:evenodd" xmlns:xlink="http://www.w3.org/1999/xlink">
<g><path style="opacity:1" fill="#76ab2f" d="M 148.5,-0.5 C 149.833,-0.5 151.167,-0.5 152.5,-0.5C 153.694,0.271873 154.694,1.27187 155.5,2.5C 155.168,11.8571 155.502,21.1904 156.5,30.5C 157.298,30.0431 157.631,29.3764 157.5,28.5C 161.33,24.5014 164.997,20.3347 168.5,16C 175.222,13.2679 178.055,15.4345 177,22.5C 174.688,25.646 172.188,28.646 169.5,31.5C 173,37.8333 176.5,44.1667 180,50.5C 180.977,53.8173 180.144,56.484 177.5,58.5C 175.833,58.5 174.167,58.5 172.5,58.5C 170.549,57.7177 169.049,56.3844 168,54.5C 165.7,50.0375 163.2,45.7042 160.5,41.5C 159.186,42.3128 158.019,43.3128 157,44.5C 156.667,48.1667 156.333,51.8333 156,55.5C 155.623,56.9423 154.79,57.9423 153.5,58.5C 151.833,58.5 150.167,58.5 148.5,58.5C 147.542,58.0472 146.708,57.3805 146,56.5C 145.333,38.5 145.333,20.5 146,2.5C 146.698,1.30943 147.531,0.309426 148.5,-0.5 Z"/></g>
<g><path style="opacity:1" fill="#262626" d="M 188.5,-0.5 C 189.5,-0.5 190.5,-0.5 191.5,-0.5C 196.467,1.75924 197.633,5.42591 195,10.5C 189.251,14.0773 185.418,12.5773 183.5,6C 184.283,3.06218 185.95,0.895511 188.5,-0.5 Z"/></g>
<g><path style="opacity:1" fill="#151515" d="M 219.5,57.5 C 215.5,58.8333 211.5,58.8333 207.5,57.5C 203.56,56.3785 201.727,53.7118 202,49.5C 201.5,40.8397 201.334,32.1731 201.5,23.5C 200.5,23.5 199.5,23.5 198.5,23.5C 196.925,21.8863 196.259,19.8863 196.5,17.5C 197.635,15.7868 199.302,15.1201 201.5,15.5C 201.184,12.0217 201.684,8.68835 203,5.5C 206.333,2.83333 209.667,2.83333 213,5.5C 213.498,8.81677 213.665,12.1501 213.5,15.5C 217.756,14.4545 220.422,15.9545 221.5,20C 221.241,21.2613 220.574,22.2613 219.5,23C 217.527,23.4955 215.527,23.6621 213.5,23.5C 213.334,31.5069 213.5,39.5069 214,47.5C 216.243,48.9708 218.743,49.9708 221.5,50.5C 222.861,53.4158 222.195,55.7491 219.5,57.5 Z"/></g>
<g><path style="opacity:1" fill="#9bc164" d="M 155.5,2.5 C 156.167,11.1667 156.833,19.8333 157.5,28.5C 157.631,29.3764 157.298,30.0431 156.5,30.5C 155.502,21.1904 155.168,11.8571 155.5,2.5 Z"/></g>
<g><path style="opacity:1" fill="#77ab30" d="M 55.5,58.5 C 53.8333,58.5 52.1667,58.5 50.5,58.5C 49.5313,57.6906 48.6979,56.6906 48,55.5C 47.6667,46.5 47.3333,37.5 47,28.5C 45.3088,24.7873 42.4755,23.6206 38.5,25C 36.5125,26.3189 35.3459,28.1523 35,30.5C 34.6667,39.1667 34.3333,47.8333 34,56.5C 33.2917,57.3805 32.4584,58.0472 31.5,58.5C 29.8333,58.5 28.1667,58.5 26.5,58.5C 25.5416,58.0472 24.7083,57.3805 24,56.5C 23.6667,47.5 23.3333,38.5 23,29.5C 21.923,24.8848 19.0897,23.3848 14.5,25C 12.5125,26.3189 11.3459,28.1523 11,30.5C 10.6667,39.1667 10.3333,47.8333 10,56.5C 9.2917,57.3805 8.45837,58.0472 7.5,58.5C 5.83333,58.5 4.16667,58.5 2.5,58.5C 1.5,57.8333 0.5,57.1667 -0.5,56.5C -0.5,43.1667 -0.5,29.8333 -0.5,16.5C 3.98872,13.3643 7.82205,14.031 11,18.5C 18.7868,11.6034 26.1201,11.9367 33,19.5C 41.0584,11.5324 49.0584,11.5324 57,19.5C 57.9734,21.3921 58.6401,23.3921 59,25.5C 59.6667,35.1667 59.6667,44.8333 59,54.5C 58.34,56.3237 57.1733,57.657 55.5,58.5 Z"/></g>
<g><path style="opacity:1" fill="#79ac32" d="M 103.5,33.5 C 103.5,35.8333 103.5,38.1667 103.5,40.5C 103.166,48.8593 99.1657,54.5259 91.5,57.5C 85.5,58.8333 79.5,58.8333 73.5,57.5C 64.5383,53.7699 60.205,46.9366 60.5,37C 62.0297,18.1387 72.0297,10.8054 90.5,15C 98.6535,18.4712 102.987,24.6378 103.5,33.5 Z M 78.5,24.5 C 84.9911,22.8449 89.1577,25.1783 91,31.5C 92.1005,37.016 91.2672,42.1827 88.5,47C 78.4979,51.214 73.1646,47.714 72.5,36.5C 72.9599,31.5794 74.9599,27.5794 78.5,24.5 Z"/></g>
<g><path style="opacity:1" fill="#7aad35" d="M 130.5,58.5 C 125.438,58.7257 120.438,58.3924 115.5,57.5C 112.357,56.8665 109.857,55.1998 108,52.5C 105.972,48.5676 104.472,44.5676 103.5,40.5C 103.5,38.1667 103.5,35.8333 103.5,33.5C 104.085,24.7412 108.418,18.5746 116.5,15C 123.949,12.8901 130.949,13.8901 137.5,18C 141.561,21.6139 142.228,25.6139 139.5,30C 137.167,30.6667 134.833,30.6667 132.5,30C 130.399,26.8758 127.566,25.0425 124,24.5C 120.18,24.6467 117.847,26.6467 117,30.5C 116.333,34.5 116.333,38.5 117,42.5C 118.504,48.0569 122.004,49.8902 127.5,48C 129.527,45.973 131.527,43.973 133.5,42C 140.895,41.2516 143.061,44.4183 140,51.5C 137.517,54.8233 134.351,57.1566 130.5,58.5 Z"/></g>
<g><path style="opacity:1" fill="#161616" d="M 263.5,28.5 C 263.5,33.8333 263.5,39.1667 263.5,44.5C 261.599,50.7353 257.599,55.0687 251.5,57.5C 245.487,58.7841 239.487,58.7841 233.5,57.5C 224.538,53.7699 220.205,46.9366 220.5,37C 222.03,18.1387 232.03,10.8054 250.5,15C 257.112,17.4424 261.445,21.9424 263.5,28.5 Z M 238.5,24.5 C 244.991,22.8449 249.158,25.1783 251,31.5C 252.101,37.016 251.267,42.1827 248.5,47C 238.498,51.214 233.165,47.714 232.5,36.5C 232.96,31.5794 234.96,27.5794 238.5,24.5 Z"/></g>
<g><path style="opacity:1" fill="#080808" d="M 194.5,16.5 C 195.462,29.117 195.795,41.7836 195.5,54.5C 195.573,56.0269 194.906,57.0269 193.5,57.5C 191.167,58.8333 188.833,58.8333 186.5,57.5C 185.883,57.3893 185.383,57.056 185,56.5C 184.333,43.1667 184.333,29.8333 185,16.5C 188.28,13.8599 191.447,13.8599 194.5,16.5 Z"/></g>
<g><path style="opacity:1" fill="#b6b6b6" d="M 194.5,16.5 C 195.167,16.8333 195.833,17.1667 196.5,17.5C 196.259,19.8863 196.925,21.8863 198.5,23.5C 196.842,33.6263 195.842,43.9597 195.5,54.5C 195.795,41.7836 195.462,29.117 194.5,16.5 Z"/></g>
<g><path style="opacity:1" fill="#e2e2e0" d="M 73.5,57.5 C 79.5,58.8333 85.5,58.8333 91.5,57.5C 91.3893,58.1174 91.056,58.6174 90.5,59C 94.9998,59.4406 98.9998,60.9406 102.5,63.5C 102.5,64.5 102.5,65.5 102.5,66.5C 98.7307,66.756 95.0641,66.4227 91.5,65.5C 84.8686,61.2906 78.5353,61.6239 72.5,66.5C 68.6286,66.815 64.9619,66.4816 61.5,65.5C 61.5106,63.9826 62.1772,62.8159 63.5,62C 66.9567,60.2565 70.6233,59.2565 74.5,59C 73.944,58.6174 73.6107,58.1174 73.5,57.5 Z"/></g>
<g><path style="opacity:1" fill="#dddddd" d="M 233.5,57.5 C 239.487,58.7841 245.487,58.7841 251.5,57.5C 251.389,58.1174 251.056,58.6174 250.5,59C 255,59.4406 259,60.9406 262.5,63.5C 262.5,64.5 262.5,65.5 262.5,66.5C 258.731,66.756 255.064,66.4227 251.5,65.5C 246.551,62.3813 241.218,61.7147 235.5,63.5C 231.818,63.6653 228.152,63.4986 224.5,63C 225.056,62.6174 225.389,62.1174 225.5,61.5C 228.203,60.037 231.203,59.2037 234.5,59C 233.944,58.6174 233.611,58.1174 233.5,57.5 Z"/></g>
<g><path style="opacity:1" fill="#ececec" d="M 148.5,58.5 C 150.167,58.5 151.833,58.5 153.5,58.5C 154.209,59.404 155.209,59.7373 156.5,59.5C 155.923,62.5497 157.09,64.5497 160,65.5C 164.061,62.7258 168.228,60.3924 172.5,58.5C 174.167,58.5 175.833,58.5 177.5,58.5C 178.209,59.404 179.209,59.7373 180.5,59.5C 180.719,60.675 180.386,61.675 179.5,62.5C 176.5,64.5 173.5,66.5 170.5,68.5C 172.49,69.4981 174.49,70.4981 176.5,71.5C 177.562,72.4246 177.562,73.4246 176.5,74.5C 173.833,74.5 171.167,74.5 168.5,74.5C 164.709,72.9507 160.876,71.284 157,69.5C 156.506,71.1341 156.34,72.8008 156.5,74.5C 152.833,74.5 149.167,74.5 145.5,74.5C 145.5,69.5 145.5,64.5 145.5,59.5C 146.791,59.7373 147.791,59.404 148.5,58.5 Z"/></g>
<g><path style="opacity:1" fill="#efefef" d="M 186.5,57.5 C 188.833,58.8333 191.167,58.8333 193.5,57.5C 193.389,58.1174 193.056,58.6174 192.5,59C 193.766,59.3095 194.933,59.8095 196,60.5C 196.499,64.1516 196.665,67.8183 196.5,71.5C 198.167,71.5 199.833,71.5 201.5,71.5C 201.335,68.1501 201.502,64.8168 202,61.5C 203.98,60.2509 205.813,58.9176 207.5,57.5C 211.5,58.8333 215.5,58.8333 219.5,57.5C 220.23,58.7124 221.23,59.7124 222.5,60.5C 222.291,61.086 221.957,61.586 221.5,62C 218.854,62.4974 216.187,62.6641 213.5,62.5C 213.5,65.5 213.5,68.5 213.5,71.5C 216.397,71.1253 219.063,71.6253 221.5,73C 220.584,73.2784 219.918,73.7784 219.5,74.5C 211.833,74.5 204.167,74.5 196.5,74.5C 195.833,73.1667 195.167,73.1667 194.5,74.5C 191.5,74.5 188.5,74.5 185.5,74.5C 184.555,69.5947 184.221,64.5947 184.5,59.5C 186.993,59.8693 187.66,59.2027 186.5,57.5 Z"/></g>
<g><path style="opacity:1" fill="#efefef" d="M 2.5,58.5 C 4.16667,58.5 5.83333,58.5 7.5,58.5C 8.20895,59.404 9.20895,59.7373 10.5,59.5C 8.96797,70.1396 13.1346,73.4729 23,69.5C 23.4983,66.1832 23.665,62.8499 23.5,59.5C 24.791,59.7373 25.791,59.404 26.5,58.5C 28.1667,58.5 29.8333,58.5 31.5,58.5C 32.209,59.404 33.209,59.7373 34.5,59.5C 32.9239,70.1222 37.0905,73.4556 47,69.5C 47.4983,66.1832 47.665,62.8499 47.5,59.5C 48.791,59.7373 49.791,59.404 50.5,58.5C 52.1667,58.5 53.8333,58.5 55.5,58.5C 56.531,59.2485 57.6976,59.9152 59,60.5C 59.6667,64.1667 59.6667,67.8333 59,71.5C 57.5913,72.7811 56.0913,73.7811 54.5,74.5C 48.1667,74.5 41.8333,74.5 35.5,74.5C 33.8333,73.1667 32.1667,73.1667 30.5,74.5C 24.5,74.5 18.5,74.5 12.5,74.5C 11.5,73.1667 10.5,73.1667 9.5,74.5C 6.5,74.5 3.5,74.5 0.5,74.5C 0.5,73.8333 0.166667,73.5 -0.5,73.5C -0.5,68.8333 -0.5,64.1667 -0.5,59.5C 0.791047,59.7373 1.79105,59.404 2.5,58.5 Z"/></g>
<g><path style="opacity:1" fill="#f2f2f1" d="M 115.5,57.5 C 120.438,58.3924 125.438,58.7257 130.5,58.5C 133.816,59.347 137.15,60.5137 140.5,62C 141.833,63 141.833,64 140.5,65C 134.889,65.9506 129.556,65.1173 124.5,62.5C 122.5,63 120.5,63.5 118.5,64C 115.833,66 115.833,68 118.5,70C 120.199,70.9581 122.033,71.4581 124,71.5C 128.047,70.7068 132.047,69.7068 136,68.5C 137.366,68.7065 138.699,69.0398 140,69.5C 141.257,69.8499 141.591,70.5165 141,71.5C 139.281,72.8688 137.448,73.8688 135.5,74.5C 127.833,74.5 120.167,74.5 112.5,74.5C 108.776,73.878 105.943,71.878 104,68.5C 103.626,69.4162 103.126,70.2496 102.5,71C 99.8421,72.478 97.1755,73.6446 94.5,74.5C 86.1667,74.5 77.8333,74.5 69.5,74.5C 67.0138,73.3376 64.5138,72.0042 62,70.5C 60.5456,68.7561 60.3789,67.0894 61.5,65.5C 64.9619,66.4816 68.6286,66.815 72.5,66.5C 74.7458,70.0439 78.0791,71.7106 82.5,71.5C 84.9228,71.4057 87.2562,70.9057 89.5,70C 91.0368,68.8904 91.7035,67.3904 91.5,65.5C 95.0641,66.4227 98.7307,66.756 102.5,66.5C 102.5,65.5 102.5,64.5 102.5,63.5C 103.222,63.9175 103.722,64.5842 104,65.5C 104.465,64.0692 105.299,62.9025 106.5,62C 109.648,60.3953 112.981,59.3953 116.5,59C 115.944,58.6174 115.611,58.1174 115.5,57.5 Z"/></g>
<g><path style="opacity:1" fill="#f6f6f6" d="M 225.5,61.5 C 225.389,62.1174 225.056,62.6174 224.5,63C 228.152,63.4986 231.818,63.6653 235.5,63.5C 231.614,67.2886 232.614,69.7886 238.5,71C 242.261,71.7383 245.928,71.4049 249.5,70C 251.037,68.8904 251.703,67.3904 251.5,65.5C 255.064,66.4227 258.731,66.756 262.5,66.5C 262.5,65.5 262.5,64.5 262.5,63.5C 262.833,63.5 263.167,63.5 263.5,63.5C 263.5,65.8333 263.5,68.1667 263.5,70.5C 260.544,72.1494 257.544,73.4827 254.5,74.5C 246.167,74.5 237.833,74.5 229.5,74.5C 227.259,73.3793 224.925,72.2126 222.5,71C 219.611,66.6102 220.611,63.4435 225.5,61.5 Z"/></g>
</svg>
