<?xml version="1.0" encoding="UTF-8"?>
<!DOCTYPE svg PUBLIC "-//W3C//DTD SVG 1.1//EN" "http://www.w3.org/Graphics/SVG/1.1/DTD/svg11.dtd">
<svg xmlns="http://www.w3.org/2000/svg" version="1.1" width="80px" height="80px" style="shape-rendering:geometricPrecision; text-rendering:geometricPrecision; image-rendering:optimizeQuality; fill-rule:evenodd; clip-rule:evenodd" xmlns:xlink="http://www.w3.org/1999/xlink">
<g><path style="opacity:0.875" fill="#000000" d="M 35.5,0.5 C 45.482,-0.0182806 49.6486,4.64839 48,14.5C 47.5348,15.9308 46.7014,17.0975 45.5,18C 34.074,22.2238 28.9073,18.3905 30,6.5C 31.3597,3.97739 33.193,1.97739 35.5,0.5 Z"/></g>
<g><path style="opacity:0.701" fill="#000000" d="M 21.5,11.5 C 23.5,11.5 25.5,11.5 27.5,11.5C 27.2923,15.1439 25.2923,17.3105 21.5,18C 12.2656,25.6373 7.7656,35.4706 8,47.5C 6.66667,48.8333 5.33333,48.8333 4,47.5C 2.64072,31.8872 8.47406,19.8872 21.5,11.5 Z"/></g>
<g><path style="opacity:0.725" fill="#000000" d="M 50.5,11.5 C 53.7935,11.259 56.7935,12.0924 59.5,14C 70.5874,22.5479 75.2541,33.7145 73.5,47.5C 72.3112,48.4287 70.9778,48.762 69.5,48.5C 70.5284,33.5499 64.5284,22.5499 51.5,15.5C 50.5713,14.3112 50.238,12.9778 50.5,11.5 Z"/></g>
<g><path style="opacity:0.72" fill="#000000" d="M 30.5,39.5 C 40.3454,38.3896 49.6787,39.8896 58.5,44C 60.1554,45.4443 60.822,47.2776 60.5,49.5C 53.8321,46.7458 46.8321,44.7458 39.5,43.5C 32.1676,44.7267 25.1676,46.7267 18.5,49.5C 18.178,47.2776 18.8446,45.4443 20.5,44C 23.8932,42.38 27.2265,40.88 30.5,39.5 Z"/></g>
<g><path style="opacity:0.772" fill="#000000" d="M 6.5,49.5 C 17.7692,47.6033 22.6025,52.27 21,63.5C 14.1072,71.7338 7.7739,71.4005 2,62.5C 0.675134,57.1569 2.17513,52.8236 6.5,49.5 Z M 10.5,53.5 C 13.4118,53.7888 15.4118,55.2888 16.5,58C 13.1667,58.6667 9.83333,58.6667 6.5,58C 7.69882,56.3057 9.03215,54.8057 10.5,53.5 Z"/></g>
<g><path style="opacity:0.71" fill="#000000" d="M 65.5,49.5 C 76.5046,50.8452 79.6713,56.5119 75,66.5C 67.782,71.3566 62.1153,70.0232 58,62.5C 56.9525,56.0613 59.4525,51.728 65.5,49.5 Z M 64.5,55.5 C 71.2846,54.6259 73.2846,57.1259 70.5,63C 66.6564,64.9181 63.9898,63.7514 62.5,59.5C 63.1799,58.1401 63.8466,56.8068 64.5,55.5 Z"/></g>
<g><path style="opacity:0.702" fill="#000000" d="M 18.5,67.5 C 22.993,69.5725 27.6597,71.4058 32.5,73C 41.6577,74.7778 49.991,72.9445 57.5,67.5C 59.6568,68.9664 59.9901,70.7997 58.5,73C 45.0716,80.4932 31.7383,80.3266 18.5,72.5C 17.3336,70.8327 17.3336,69.166 18.5,67.5 Z"/></g>
</svg>
