<?xml version="1.0" encoding="UTF-8"?>
<!DOCTYPE svg PUBLIC "-//W3C//DTD SVG 1.1//EN" "http://www.w3.org/Graphics/SVG/1.1/DTD/svg11.dtd">
<svg xmlns="http://www.w3.org/2000/svg" version="1.1" width="160px" height="160px" style="shape-rendering:geometricPrecision; text-rendering:geometricPrecision; image-rendering:optimizeQuality; fill-rule:evenodd; clip-rule:evenodd" xmlns:xlink="http://www.w3.org/1999/xlink">
<g><path style="opacity:1" fill="#dfeff4" d="M -0.5,-0.5 C 52.8333,-0.5 106.167,-0.5 159.5,-0.5C 159.5,15.1667 159.5,30.8333 159.5,46.5C 157.326,46.7497 155.659,47.7497 154.5,49.5C 154.665,46.4816 154.498,43.4816 154,40.5C 153.5,40 153,39.5 152.5,39C 140.505,38.5001 128.505,38.3335 116.5,38.5C 121.681,37.8335 127.015,37.1668 132.5,36.5C 112.162,17.1661 89.8288,14.4995 65.5,28.5C 61.2191,24.422 56.2191,21.2554 50.5,19C 43.5208,16.518 37.0208,17.3514 31,21.5C 26.2096,11.9809 19.2096,9.98091 10,15.5C 7.92803,20.2402 6.92803,25.2402 7,30.5C 4.33673,32.3336 1.83673,34.3336 -0.5,36.5C -0.5,24.1667 -0.5,11.8333 -0.5,-0.5 Z"/></g>
<g><path style="opacity:1" fill="#f4fbfd" d="M 65.5,28.5 C 62.9014,30.4793 60.2347,32.4793 57.5,34.5C 44.964,27.3198 32.964,28.1531 21.5,37C 18.9644,37.1862 16.631,37.6862 14.5,38.5C 14.5,40.5 14.5,42.5 14.5,44.5C 14.5,44.8333 14.5,45.1667 14.5,45.5C 13.9717,46.7206 13.305,47.8873 12.5,49C 7.79638,51.3463 3.46305,54.1796 -0.5,57.5C -0.5,50.5 -0.5,43.5 -0.5,36.5C 1.83673,34.3336 4.33673,32.3336 7,30.5C 6.92803,25.2402 7.92803,20.2402 10,15.5C 19.2096,9.98091 26.2096,11.9809 31,21.5C 37.0208,17.3514 43.5208,16.518 50.5,19C 56.2191,21.2554 61.2191,24.422 65.5,28.5 Z"/></g>
<g><path style="opacity:1" fill="#fbfbf9" d="M 116.5,38.5 C 114.896,39.287 114.229,40.6203 114.5,42.5C 113.395,41.3995 112.062,40.7329 110.5,40.5C 103.047,36.3444 95.7138,36.511 88.5,41C 87.0229,42.8121 85.6896,44.6455 84.5,46.5C 83.7171,44.6568 83.0505,42.6568 82.5,40.5C 82.0431,39.7025 81.3764,39.3691 80.5,39.5C 70.2487,38.525 59.9154,38.1917 49.5,38.5C 49.5,40.5 49.5,42.5 49.5,44.5C 50.209,45.404 51.209,45.7373 52.5,45.5C 52.5,55.5 52.5,65.5 52.5,75.5C 51.5,75.5 50.5,75.5 49.5,75.5C 46.7331,71.872 44.0664,68.0387 41.5,64C 47.5876,59.7481 49.7543,53.9148 48,46.5C 46.8333,42.6667 44.3333,40.1667 40.5,39C 31.8397,38.5002 23.1731,38.3336 14.5,38.5C 16.631,37.6862 18.9644,37.1862 21.5,37C 32.964,28.1531 44.964,27.3198 57.5,34.5C 60.2347,32.4793 62.9014,30.4793 65.5,28.5C 89.8288,14.4995 112.162,17.1661 132.5,36.5C 127.015,37.1668 121.681,37.8335 116.5,38.5 Z"/></g>
<g><path style="opacity:1" fill="#d1c53a" d="M 14.5,38.5 C 23.1731,38.3336 31.8397,38.5002 40.5,39C 44.3333,40.1667 46.8333,42.6667 48,46.5C 49.7543,53.9148 47.5876,59.7481 41.5,64C 44.0664,68.0387 46.7331,71.872 49.5,75.5C 50.209,76.404 51.209,76.7373 52.5,76.5C 52.5,77.5 52.5,78.5 52.5,79.5C 52.5,80.8333 52.5,82.1667 52.5,83.5C 49.8127,83.6641 47.146,83.4974 44.5,83C 40.4308,78.124 37.0974,72.7907 34.5,67C 32.1902,66.5034 29.8568,66.3367 27.5,66.5C 26.5206,69.6248 26.1872,72.9581 26.5,76.5C 24.1667,76.5 21.8333,76.5 19.5,76.5C 19.5,65.8333 19.5,55.1667 19.5,44.5C 17.8333,44.5 16.1667,44.5 14.5,44.5C 14.5,42.5 14.5,40.5 14.5,38.5 Z"/></g>
<g><path style="opacity:1" fill="#d1c539" d="M 80.5,39.5 C 80.5,42.8333 80.5,46.1667 80.5,49.5C 78.1667,49.5 75.8333,49.5 73.5,49.5C 73.7678,47.901 73.4345,46.5676 72.5,45.5C 69.0381,44.5184 65.3714,44.185 61.5,44.5C 61.1832,48.7016 61.5166,52.7016 62.5,56.5C 67.1667,56.5 71.8333,56.5 76.5,56.5C 76.5,58.8333 76.5,61.1667 76.5,63.5C 71.5,63.5 66.5,63.5 61.5,63.5C 61.1832,67.7016 61.5166,71.7016 62.5,75.5C 66.3112,76.6453 70.3112,76.8119 74.5,76C 75.3366,74.9887 75.67,73.8221 75.5,72.5C 77.8333,72.5 80.1667,72.5 82.5,72.5C 82.6646,75.5184 82.498,78.5184 82,81.5C 81.5,82 81,82.5 80.5,83C 72.1667,83.6667 63.8333,83.6667 55.5,83C 54.1772,82.1841 53.5106,81.0174 53.5,79.5C 53.5,67.8333 53.5,56.1667 53.5,44.5C 52.1667,44.5 50.8333,44.5 49.5,44.5C 49.5,42.5 49.5,40.5 49.5,38.5C 59.9154,38.1917 70.2487,38.525 80.5,39.5 Z"/></g>
<g><path style="opacity:1" fill="#d0c53c" d="M 110.5,40.5 C 112.299,43.5046 112.966,46.838 112.5,50.5C 110.167,50.5 107.833,50.5 105.5,50.5C 105.823,46.308 103.823,44.308 99.5,44.5C 94.6155,44.5442 92.4489,46.8775 93,51.5C 99.6379,54.9874 105.971,58.9874 112,63.5C 116.004,72.004 113.837,78.504 105.5,83C 97.1564,85.1779 90.1564,83.1779 84.5,77C 85.5355,75.0986 86.7022,73.2652 88,71.5C 92.8647,76.5493 98.3647,77.5493 104.5,74.5C 105.641,72.5787 105.808,70.5787 105,68.5C 99.3656,65.1802 93.699,61.8469 88,58.5C 85.051,55.0498 83.8843,51.0498 84.5,46.5C 85.6896,44.6455 87.0229,42.8121 88.5,41C 95.7138,36.511 103.047,36.3444 110.5,40.5 Z"/></g>
<g><path style="opacity:1" fill="#d1c539" d="M 116.5,38.5 C 128.505,38.3335 140.505,38.5001 152.5,39C 153,39.5 153.5,40 154,40.5C 154.498,43.4816 154.665,46.4816 154.5,49.5C 152.167,49.5 149.833,49.5 147.5,49.5C 147.67,48.1779 147.337,47.0113 146.5,46C 143.854,45.5026 141.187,45.3359 138.5,45.5C 138.5,61.1667 138.5,76.8333 138.5,92.5C 135.578,90.406 133.078,87.7393 131,84.5C 130.831,71.3269 130.331,58.3269 129.5,45.5C 126.833,45.5 124.167,45.5 121.5,45.5C 121.5,46.8333 121.5,48.1667 121.5,49.5C 119.167,49.5 116.833,49.5 114.5,49.5C 114.5,47.1667 114.5,44.8333 114.5,42.5C 114.229,40.6203 114.896,39.287 116.5,38.5 Z"/></g>
<g><path style="opacity:1" fill="#c4c19b" d="M 35.5,45.5 C 32.8333,45.5 30.1667,45.5 27.5,45.5C 27.5,50.1667 27.5,54.8333 27.5,59.5C 26.5128,54.6946 26.1795,49.6946 26.5,44.5C 29.7131,44.19 32.7131,44.5233 35.5,45.5 Z"/></g>
<g><path style="opacity:1" fill="#c5c29d" d="M 72.5,45.5 C 69.1667,45.5 65.8333,45.5 62.5,45.5C 62.5,49.1667 62.5,52.8333 62.5,56.5C 61.5166,52.7016 61.1832,48.7016 61.5,44.5C 65.3714,44.185 69.0381,44.5184 72.5,45.5 Z"/></g>
<g><path style="opacity:1" fill="#fcfcfc" d="M 14.5,45.5 C 15.8333,45.5 17.1667,45.5 18.5,45.5C 18.5,55.8333 18.5,66.1667 18.5,76.5C 13.8333,76.5 9.16667,76.5 4.5,76.5C 4.5,79.1667 4.5,81.8333 4.5,84.5C 6.16667,84.5 7.83333,84.5 9.5,84.5C 9.5,96.8333 9.5,109.167 9.5,121.5C 8.85013,121.196 8.18346,120.863 7.5,120.5C 6.12988,125.983 3.46322,130.649 -0.5,134.5C -0.5,108.833 -0.5,83.1667 -0.5,57.5C 3.46305,54.1796 7.79638,51.3463 12.5,49C 13.305,47.8873 13.9717,46.7206 14.5,45.5 Z"/></g>
<g><path style="opacity:1" fill="#e9e8e2" d="M 154.5,49.5 C 152.052,50.4731 149.385,50.8064 146.5,50.5C 146.5,49.5 146.5,48.5 146.5,47.5C 144.5,47.5 142.5,47.5 140.5,47.5C 140.667,63.5035 140.5,79.5035 140,95.5C 139.085,96.3279 138.419,97.3279 138,98.5C 136.984,104.151 136.15,109.818 135.5,115.5C 134.5,115.5 133.5,115.5 132.5,115.5C 132.962,113.243 133.962,111.243 135.5,109.5C 134.757,108.818 134.091,108.151 133.5,107.5C 134.431,102.165 136.098,97.1653 138.5,92.5C 138.5,76.8333 138.5,61.1667 138.5,45.5C 141.187,45.3359 143.854,45.5026 146.5,46C 147.337,47.0113 147.67,48.1779 147.5,49.5C 149.833,49.5 152.167,49.5 154.5,49.5 Z"/></g>
<g><path style="opacity:1" fill="#fefefe" d="M 159.5,46.5 C 159.5,84.1667 159.5,121.833 159.5,159.5C 141.167,159.5 122.833,159.5 104.5,159.5C 101.856,157.031 99.0228,154.698 96,152.5C 94.0335,149.399 92.2002,146.232 90.5,143C 94.9964,139.686 99.663,136.519 104.5,133.5C 105.705,132.423 106.372,131.09 106.5,129.5C 113.597,124.92 120.597,120.087 127.5,115C 129.197,114.616 130.863,114.782 132.5,115.5C 133.5,115.5 134.5,115.5 135.5,115.5C 136.15,109.818 136.984,104.151 138,98.5C 138.419,97.3279 139.085,96.3279 140,95.5C 140.5,79.5035 140.667,63.5035 140.5,47.5C 142.5,47.5 144.5,47.5 146.5,47.5C 146.5,48.5 146.5,49.5 146.5,50.5C 149.385,50.8064 152.052,50.4731 154.5,49.5C 155.659,47.7497 157.326,46.7497 159.5,46.5 Z"/></g>
<g><path style="opacity:1" fill="#c6c07b" d="M 14.5,45.5 C 14.5,45.1667 14.5,44.8333 14.5,44.5C 16.1667,44.5 17.8333,44.5 19.5,44.5C 19.5,55.1667 19.5,65.8333 19.5,76.5C 21.8333,76.5 24.1667,76.5 26.5,76.5C 26.5,76.8333 26.5,77.1667 26.5,77.5C 23.8333,77.5 21.1667,77.5 18.5,77.5C 18.5,77.1667 18.5,76.8333 18.5,76.5C 18.5,66.1667 18.5,55.8333 18.5,45.5C 17.1667,45.5 15.8333,45.5 14.5,45.5 Z"/></g>
<g><path style="opacity:1" fill="#f9f9f8" d="M 35.5,45.5 C 40.183,47.2095 41.683,50.5429 40,55.5C 39.1667,57 38,58.1667 36.5,59C 33.5184,59.498 30.5184,59.6646 27.5,59.5C 27.5,54.8333 27.5,50.1667 27.5,45.5C 30.1667,45.5 32.8333,45.5 35.5,45.5 Z"/></g>
<g><path style="opacity:1" fill="#e2dfbb" d="M 49.5,44.5 C 50.8333,44.5 52.1667,44.5 53.5,44.5C 53.5,56.1667 53.5,67.8333 53.5,79.5C 53.1667,79.5 52.8333,79.5 52.5,79.5C 52.5,78.5 52.5,77.5 52.5,76.5C 51.209,76.7373 50.209,76.404 49.5,75.5C 50.5,75.5 51.5,75.5 52.5,75.5C 52.5,65.5 52.5,55.5 52.5,45.5C 51.209,45.7373 50.209,45.404 49.5,44.5 Z"/></g>
<g><path style="opacity:1" fill="#c6c39d" d="M 76.5,63.5 C 72.03,64.4861 67.3633,64.8195 62.5,64.5C 62.5,68.1667 62.5,71.8333 62.5,75.5C 61.5166,71.7016 61.1832,67.7016 61.5,63.5C 66.5,63.5 71.5,63.5 76.5,63.5 Z"/></g>
<g><path style="opacity:1" fill="#f6f6f5" d="M 80.5,39.5 C 81.3764,39.3691 82.0431,39.7025 82.5,40.5C 83.0505,42.6568 83.7171,44.6568 84.5,46.5C 83.8843,51.0498 85.051,55.0498 88,58.5C 93.699,61.8469 99.3656,65.1802 105,68.5C 105.808,70.5787 105.641,72.5787 104.5,74.5C 98.3647,77.5493 92.8647,76.5493 88,71.5C 86.7022,73.2652 85.5355,75.0986 84.5,77C 90.1564,83.1779 97.1564,85.1779 105.5,83C 113.837,78.504 116.004,72.004 112,63.5C 105.971,58.9874 99.6379,54.9874 93,51.5C 92.4489,46.8775 94.6155,44.5442 99.5,44.5C 103.823,44.308 105.823,46.308 105.5,50.5C 107.833,50.5 110.167,50.5 112.5,50.5C 112.966,46.838 112.299,43.5046 110.5,40.5C 112.062,40.7329 113.395,41.3995 114.5,42.5C 114.5,44.8333 114.5,47.1667 114.5,49.5C 116.833,49.5 119.167,49.5 121.5,49.5C 121.5,48.1667 121.5,46.8333 121.5,45.5C 124.167,45.5 126.833,45.5 129.5,45.5C 129.667,58.1711 129.5,70.8377 129,83.5C 127.907,81.6508 126.574,79.9842 125,78.5C 123.926,79.6184 122.76,80.6184 121.5,81.5C 123.803,84.4025 122.803,85.2358 118.5,84C 116.99,83.1502 115.49,82.3169 114,81.5C 112.726,82.5353 111.56,83.702 110.5,85C 110.957,85.414 111.291,85.914 111.5,86.5C 110.148,87.5244 108.815,88.5244 107.5,89.5C 106.923,88.2267 106.257,88.2267 105.5,89.5C 103.585,91.0712 102.585,93.0712 102.5,95.5C 102.528,97.5824 101.861,99.4157 100.5,101C 101.381,101.708 102.047,102.542 102.5,103.5C 102.453,106.969 101.787,110.302 100.5,113.5C 99.8333,112.167 99.1667,110.833 98.5,109.5C 96.9962,107.164 94.9962,105.331 92.5,104C 88.8733,103.436 85.7066,101.936 83,99.5C 82.1399,96.5218 83.3066,95.1884 86.5,95.5C 88.9818,95.1104 90.3152,96.1104 90.5,98.5C 92.9479,99.4731 95.6146,99.8064 98.5,99.5C 98.7947,97.2646 98.4614,95.2646 97.5,93.5C 94.6852,90.2245 91.0186,88.8912 86.5,89.5C 75.3428,89.1557 71.8428,94.1557 76,104.5C 80.1386,107.486 84.6386,109.82 89.5,111.5C 91.2544,114.813 90.2544,116.48 86.5,116.5C 82.9536,116.321 79.9536,114.987 77.5,112.5C 72.5333,115.523 72.5333,118.357 77.5,121C 82.8456,123.892 88.1789,124.059 93.5,121.5C 94.3324,122.329 93.999,123.162 92.5,124C 90.3295,125.586 87.9962,126.92 85.5,128C 70.2663,129.339 55.2663,128.172 40.5,124.5C 40.2053,122.265 40.5386,120.265 41.5,118.5C 47.1462,124.788 53.3129,125.121 60,119.5C 60.9025,120.701 62.0692,121.535 63.5,122C 66.4816,122.498 69.4816,122.665 72.5,122.5C 72.5,120.167 72.5,117.833 72.5,115.5C 71.1667,115.5 69.8333,115.5 68.5,115.5C 68.6662,109.158 68.4995,102.825 68,96.5C 67.214,93.4173 65.3807,91.2506 62.5,90C 57.1667,89.3333 51.8333,89.3333 46.5,90C 43.1788,91.8119 41.8454,94.6453 42.5,98.5C 45.6808,98.9984 48.3475,98.1651 50.5,96C 53.1667,95.3333 55.8333,95.3333 58.5,96C 60.229,97.7889 60.8957,99.9556 60.5,102.5C 53.2315,101.189 46.8982,102.856 41.5,107.5C 40.8728,108.417 40.5394,109.417 40.5,110.5C 39.2876,109.77 38.2876,108.77 37.5,107.5C 36.0118,109.149 35.0118,111.149 34.5,113.5C 31.7924,107.915 30.4591,108.248 30.5,114.5C 26.1667,114.5 21.8333,114.5 17.5,114.5C 17.5,110.833 17.5,107.167 17.5,103.5C 22.5,103.5 27.5,103.5 32.5,103.5C 32.5,100.833 32.5,98.1667 32.5,95.5C 27.5,95.5 22.5,95.5 17.5,95.5C 17.5,91.8333 17.5,88.1667 17.5,84.5C 21.5,84.5 25.5,84.5 29.5,84.5C 29.5,85.8333 29.5,87.1667 29.5,88.5C 31.8333,88.5 34.1667,88.5 36.5,88.5C 36.665,85.1501 36.4983,81.8168 36,78.5C 35.6174,77.944 35.1174,77.6107 34.5,77.5C 32.3926,76.5318 30.0593,76.1984 27.5,76.5C 27.5,73.1667 27.5,69.8333 27.5,66.5C 29.8568,66.3367 32.1902,66.5034 34.5,67C 37.0974,72.7907 40.4308,78.124 44.5,83C 47.146,83.4974 49.8127,83.6641 52.5,83.5C 52.5,82.1667 52.5,80.8333 52.5,79.5C 52.8333,79.5 53.1667,79.5 53.5,79.5C 53.5106,81.0174 54.1772,82.1841 55.5,83C 63.8333,83.6667 72.1667,83.6667 80.5,83C 81,82.5 81.5,82 82,81.5C 82.498,78.5184 82.6646,75.5184 82.5,72.5C 80.1667,72.5 77.8333,72.5 75.5,72.5C 75.67,73.8221 75.3366,74.9887 74.5,76C 70.3112,76.8119 66.3112,76.6453 62.5,75.5C 62.5,71.8333 62.5,68.1667 62.5,64.5C 67.3633,64.8195 72.03,64.4861 76.5,63.5C 76.5,61.1667 76.5,58.8333 76.5,56.5C 71.8333,56.5 67.1667,56.5 62.5,56.5C 62.5,52.8333 62.5,49.1667 62.5,45.5C 65.8333,45.5 69.1667,45.5 72.5,45.5C 73.4345,46.5676 73.7678,47.901 73.5,49.5C 75.8333,49.5 78.1667,49.5 80.5,49.5C 80.5,46.1667 80.5,42.8333 80.5,39.5 Z"/></g>
<g><path style="opacity:1" fill="#b4b1a0" d="M 27.5,66.5 C 27.5,69.8333 27.5,73.1667 27.5,76.5C 30.0593,76.1984 32.3926,76.5318 34.5,77.5C 31.8333,77.5 29.1667,77.5 26.5,77.5C 26.5,77.1667 26.5,76.8333 26.5,76.5C 26.1872,72.9581 26.5206,69.6248 27.5,66.5 Z"/></g>
<g><path style="opacity:1" fill="#5e5a4c" d="M 18.5,77.5 C 21.1667,77.5 23.8333,77.5 26.5,77.5C 29.1667,77.5 31.8333,77.5 34.5,77.5C 35.1174,77.6107 35.6174,77.944 36,78.5C 36.4983,81.8168 36.665,85.1501 36.5,88.5C 34.1667,88.5 31.8333,88.5 29.5,88.5C 29.5,87.1667 29.5,85.8333 29.5,84.5C 25.5,84.5 21.5,84.5 17.5,84.5C 17.5,88.1667 17.5,91.8333 17.5,95.5C 21.97,96.4861 26.6367,96.8195 31.5,96.5C 31.5,98.5 31.5,100.5 31.5,102.5C 26.6367,102.181 21.97,102.514 17.5,103.5C 17.5,107.167 17.5,110.833 17.5,114.5C 21.6472,115.325 25.9805,115.825 30.5,116C 31.768,118.163 31.768,120.33 30.5,122.5C 23.8333,122.5 17.1667,122.5 10.5,122.5C 10.5,121.833 10.1667,121.5 9.5,121.5C 9.5,109.167 9.5,96.8333 9.5,84.5C 8.43236,83.5655 7.09903,83.2322 5.5,83.5C 5.5,81.5 5.5,79.5 5.5,77.5C 9.83333,77.5 14.1667,77.5 18.5,77.5 Z"/></g>
<g><path style="opacity:1" fill="#cac6b4" d="M 129.5,45.5 C 130.331,58.3269 130.831,71.3269 131,84.5C 133.078,87.7393 135.578,90.406 138.5,92.5C 136.098,97.1653 134.431,102.165 133.5,107.5C 132.29,107.068 131.29,106.401 130.5,105.5C 131.376,105.631 132.043,105.298 132.5,104.5C 130.684,103.185 129.017,101.685 127.5,100C 128.743,98.8455 129.743,97.5122 130.5,96C 125.219,92.7762 119.719,89.9428 114,87.5C 109.055,90.4456 105.555,94.6122 103.5,100C 104.535,101.274 105.702,102.44 107,103.5C 106.621,105.075 106.788,106.575 107.5,108C 110.5,108.667 113.5,108.667 116.5,108C 117.772,106.693 118.772,105.193 119.5,103.5C 120.934,104.588 121.934,105.922 122.5,107.5C 120.167,109.5 117.833,111.5 115.5,113.5C 113.77,114.026 112.436,115.026 111.5,116.5C 107.824,119.499 106.824,118.832 108.5,114.5C 108.346,112.03 107.346,110.03 105.5,108.5C 105.408,106.152 104.408,104.486 102.5,103.5C 102.047,102.542 101.381,101.708 100.5,101C 101.861,99.4157 102.528,97.5824 102.5,95.5C 104.836,94.155 106.503,92.155 107.5,89.5C 108.815,88.5244 110.148,87.5244 111.5,86.5C 111.291,85.914 110.957,85.414 110.5,85C 111.56,83.702 112.726,82.5353 114,81.5C 115.49,82.3169 116.99,83.1502 118.5,84C 122.803,85.2358 123.803,84.4025 121.5,81.5C 122.76,80.6184 123.926,79.6184 125,78.5C 126.574,79.9842 127.907,81.6508 129,83.5C 129.5,70.8377 129.667,58.1711 129.5,45.5 Z"/></g>
<g><path style="opacity:1" fill="#98968d" d="M 18.5,76.5 C 18.5,76.8333 18.5,77.1667 18.5,77.5C 14.1667,77.5 9.83333,77.5 5.5,77.5C 5.5,79.5 5.5,81.5 5.5,83.5C 7.09903,83.2322 8.43236,83.5655 9.5,84.5C 7.83333,84.5 6.16667,84.5 4.5,84.5C 4.5,81.8333 4.5,79.1667 4.5,76.5C 9.16667,76.5 13.8333,76.5 18.5,76.5 Z"/></g>
<g><path style="opacity:1" fill="#fbfaf9" d="M 130.5,105.5 C 127.487,105.107 124.82,105.774 122.5,107.5C 121.934,105.922 120.934,104.588 119.5,103.5C 118.772,105.193 117.772,106.693 116.5,108C 113.5,108.667 110.5,108.667 107.5,108C 106.788,106.575 106.621,105.075 107,103.5C 105.702,102.44 104.535,101.274 103.5,100C 105.555,94.6122 109.055,90.4456 114,87.5C 119.719,89.9428 125.219,92.7762 130.5,96C 129.743,97.5122 128.743,98.8455 127.5,100C 129.017,101.685 130.684,103.185 132.5,104.5C 132.043,105.298 131.376,105.631 130.5,105.5 Z"/></g>
<g><path style="opacity:1" fill="#5f5b4e" d="M 41.5,118.5 C 40.612,115.946 40.2786,113.279 40.5,110.5C 40.5394,109.417 40.8728,108.417 41.5,107.5C 46.8982,102.856 53.2315,101.189 60.5,102.5C 60.8957,99.9556 60.229,97.7889 58.5,96C 55.8333,95.3333 53.1667,95.3333 50.5,96C 48.3475,98.1651 45.6808,98.9984 42.5,98.5C 41.8454,94.6453 43.1788,91.8119 46.5,90C 51.8333,89.3333 57.1667,89.3333 62.5,90C 65.3807,91.2506 67.214,93.4173 68,96.5C 68.4995,102.825 68.6662,109.158 68.5,115.5C 69.8333,115.5 71.1667,115.5 72.5,115.5C 72.5,117.833 72.5,120.167 72.5,122.5C 69.4816,122.665 66.4816,122.498 63.5,122C 62.0692,121.535 60.9025,120.701 60,119.5C 53.3129,125.121 47.1462,124.788 41.5,118.5 Z"/></g>
<g><path style="opacity:1" fill="#5f5b4e" d="M 97.5,93.5 C 97.5,95.1667 97.5,96.8333 97.5,98.5C 95.1667,98.5 92.8333,98.5 90.5,98.5C 90.3152,96.1104 88.9818,95.1104 86.5,95.5C 83.3066,95.1884 82.1399,96.5218 83,99.5C 85.7066,101.936 88.8733,103.436 92.5,104C 94.9962,105.331 96.9962,107.164 98.5,109.5C 99.7022,114.937 98.0355,118.937 93.5,121.5C 88.1789,124.059 82.8456,123.892 77.5,121C 72.5333,118.357 72.5333,115.523 77.5,112.5C 79.9536,114.987 82.9536,116.321 86.5,116.5C 90.2544,116.48 91.2544,114.813 89.5,111.5C 84.6386,109.82 80.1386,107.486 76,104.5C 71.8428,94.1557 75.3428,89.1557 86.5,89.5C 91.0186,88.8912 94.6852,90.2245 97.5,93.5 Z"/></g>
<g><path style="opacity:1" fill="#686557" d="M 107.5,89.5 C 106.503,92.155 104.836,94.155 102.5,95.5C 102.585,93.0712 103.585,91.0712 105.5,89.5C 106.257,88.2267 106.923,88.2267 107.5,89.5 Z"/></g>
<g><path style="opacity:1" fill="#88857b" d="M 17.5,95.5 C 22.5,95.5 27.5,95.5 32.5,95.5C 32.5,98.1667 32.5,100.833 32.5,103.5C 27.5,103.5 22.5,103.5 17.5,103.5C 21.97,102.514 26.6367,102.181 31.5,102.5C 31.5,100.5 31.5,98.5 31.5,96.5C 26.6367,96.8195 21.97,96.4861 17.5,95.5 Z"/></g>
<g><path style="opacity:1" fill="#9e9b93" d="M 97.5,93.5 C 98.4614,95.2646 98.7947,97.2646 98.5,99.5C 95.6146,99.8064 92.9479,99.4731 90.5,98.5C 92.8333,98.5 95.1667,98.5 97.5,98.5C 97.5,96.8333 97.5,95.1667 97.5,93.5 Z"/></g>
<g><path style="opacity:1" fill="#615d4f" d="M 102.5,103.5 C 104.408,104.486 105.408,106.152 105.5,108.5C 103.797,110.851 103.297,113.518 104,116.5C 105.33,115.418 106.83,114.751 108.5,114.5C 106.824,118.832 107.824,119.499 111.5,116.5C 112.434,117.568 112.768,118.901 112.5,120.5C 115.833,119.359 118.833,117.526 121.5,115C 119.292,114.809 117.292,114.309 115.5,113.5C 117.833,111.5 120.167,109.5 122.5,107.5C 124.82,105.774 127.487,105.107 130.5,105.5C 131.29,106.401 132.29,107.068 133.5,107.5C 134.091,108.151 134.757,108.818 135.5,109.5C 133.962,111.243 132.962,113.243 132.5,115.5C 130.863,114.782 129.197,114.616 127.5,115C 120.597,120.087 113.597,124.92 106.5,129.5C 99.6034,134.115 92.2701,137.949 84.5,141C 64.6031,142.872 47.2697,137.372 32.5,124.5C 46.7887,132.127 62.122,135.627 78.5,135C 81.3791,134.454 84.0458,133.621 86.5,132.5C 90.1114,130.356 93.7781,128.19 97.5,126C 98.3802,124.644 98.7135,123.144 98.5,121.5C 99.1667,118.833 99.8333,116.167 100.5,113.5C 101.787,110.302 102.453,106.969 102.5,103.5 Z"/></g>
<g><path style="opacity:1" fill="#c1bcab" d="M 40.5,110.5 C 40.2786,113.279 40.612,115.946 41.5,118.5C 40.5386,120.265 40.2053,122.265 40.5,124.5C 55.2663,128.172 70.2663,129.339 85.5,128C 87.9962,126.92 90.3295,125.586 92.5,124C 93.999,123.162 94.3324,122.329 93.5,121.5C 98.0355,118.937 99.7022,114.937 98.5,109.5C 99.1667,110.833 99.8333,112.167 100.5,113.5C 99.8333,116.167 99.1667,118.833 98.5,121.5C 95.0292,124.111 91.3626,126.611 87.5,129C 86.6634,130.011 86.33,131.178 86.5,132.5C 84.0458,133.621 81.3791,134.454 78.5,135C 62.122,135.627 46.7887,132.127 32.5,124.5C 31.5,124.167 30.8333,123.5 30.5,122.5C 31.768,120.33 31.768,118.163 30.5,116C 25.9805,115.825 21.6472,115.325 17.5,114.5C 21.8333,114.5 26.1667,114.5 30.5,114.5C 30.4591,108.248 31.7924,107.915 34.5,113.5C 35.0118,111.149 36.0118,109.149 37.5,107.5C 38.2876,108.77 39.2876,109.77 40.5,110.5 Z"/></g>
<g><path style="opacity:1" fill="#f2f2f1" d="M 53.5,107.5 C 55.8333,107.5 58.1667,107.5 60.5,107.5C 60.1338,113.847 56.8004,116.681 50.5,116C 47.4326,111.778 48.4326,108.944 53.5,107.5 Z"/></g>
<g><path style="opacity:1" fill="#908b7b" d="M 105.5,108.5 C 107.346,110.03 108.346,112.03 108.5,114.5C 106.83,114.751 105.33,115.418 104,116.5C 103.297,113.518 103.797,110.851 105.5,108.5 Z"/></g>
<g><path style="opacity:1" fill="#8e8a7a" d="M 115.5,113.5 C 117.292,114.309 119.292,114.809 121.5,115C 118.833,117.526 115.833,119.359 112.5,120.5C 112.768,118.901 112.434,117.568 111.5,116.5C 112.436,115.026 113.77,114.026 115.5,113.5 Z"/></g>
<g><path style="opacity:1" fill="#f5f5f3" d="M 98.5,121.5 C 98.7135,123.144 98.3802,124.644 97.5,126C 93.7781,128.19 90.1114,130.356 86.5,132.5C 86.33,131.178 86.6634,130.011 87.5,129C 91.3626,126.611 95.0292,124.111 98.5,121.5 Z"/></g>
<g><path style="opacity:1" fill="#dbeef3" d="M 9.5,121.5 C 10.1667,121.5 10.5,121.833 10.5,122.5C 15.4101,125.076 20.7435,126.576 26.5,127C 31.6382,133.205 36.6382,139.538 41.5,146C 50.1573,149.075 57.824,147.575 64.5,141.5C 66.2895,142.877 68.2895,143.877 70.5,144.5C 71.0826,149.638 72.0826,154.638 73.5,159.5C 48.8333,159.5 24.1667,159.5 -0.5,159.5C -0.5,151.167 -0.5,142.833 -0.5,134.5C 3.46322,130.649 6.12988,125.983 7.5,120.5C 8.18346,120.863 8.85013,121.196 9.5,121.5 Z"/></g>
<g><path style="opacity:1" fill="#f2f9fb" d="M 10.5,122.5 C 17.1667,122.5 23.8333,122.5 30.5,122.5C 30.8333,123.5 31.5,124.167 32.5,124.5C 47.2697,137.372 64.6031,142.872 84.5,141C 92.2701,137.949 99.6034,134.115 106.5,129.5C 106.372,131.09 105.705,132.423 104.5,133.5C 99.663,136.519 94.9964,139.686 90.5,143C 92.2002,146.232 94.0335,149.399 96,152.5C 99.0228,154.698 101.856,157.031 104.5,159.5C 94.1667,159.5 83.8333,159.5 73.5,159.5C 72.0826,154.638 71.0826,149.638 70.5,144.5C 68.2895,143.877 66.2895,142.877 64.5,141.5C 57.824,147.575 50.1573,149.075 41.5,146C 36.6382,139.538 31.6382,133.205 26.5,127C 20.7435,126.576 15.4101,125.076 10.5,122.5 Z"/></g>
</svg>
