<?xml version="1.0" encoding="UTF-8"?>
<!DOCTYPE svg PUBLIC "-//W3C//DTD SVG 1.1//EN" "http://www.w3.org/Graphics/SVG/1.1/DTD/svg11.dtd">
<svg xmlns="http://www.w3.org/2000/svg" version="1.1" width="1021px" height="1023px" style="shape-rendering:geometricPrecision; text-rendering:geometricPrecision; image-rendering:optimizeQuality; fill-rule:evenodd; clip-rule:evenodd" xmlns:xlink="http://www.w3.org/1999/xlink">
<g><path style="opacity:1" fill="#005f0f" d="M 59.5,-0.5 C 359.833,-0.5 660.167,-0.5 960.5,-0.5C 992.833,7.16667 1012.83,27.1667 1020.5,59.5C 1020.5,360.5 1020.5,661.5 1020.5,962.5C 1012.83,994.833 992.833,1014.83 960.5,1022.5C 660.167,1022.5 359.833,1022.5 59.5,1022.5C 27.1667,1014.83 7.16667,994.833 -0.5,962.5C -0.5,661.5 -0.5,360.5 -0.5,59.5C 7.16667,27.1667 27.1667,7.16667 59.5,-0.5 Z"/></g>
<g><path style="opacity:1" fill="#fefefe" d="M 866.5,142.5 C 828.503,224.517 790.337,306.85 752,389.5C 708.42,484.731 655.754,574.064 594,657.5C 566.337,694.498 533.504,725.998 495.5,752C 469.93,768.286 442.263,779.286 412.5,785C 361.382,792.622 316.715,779.288 278.5,745C 264.279,729.97 258.779,712.136 262,691.5C 264.614,673.273 272.281,657.606 285,644.5C 301.793,627.048 319.627,610.881 338.5,596C 393.675,557.579 448.675,518.913 503.5,480C 621.52,394.586 729.687,297.419 828,188.5C 841.079,173.321 853.913,157.987 866.5,142.5 Z"/></g>
<g><path style="opacity:1" fill="#ada89e" d="M 793.5,194.5 C 794.239,194.369 794.906,194.536 795.5,195C 704.632,292.91 605.632,380.91 498.5,459C 448.85,494.492 398.85,529.492 348.5,564C 319.267,584.885 292.1,608.385 267,634.5C 252.152,652.029 244.152,672.362 243,695.5C 219.092,651.424 213.425,605.091 226,556.5C 234.083,531.823 247.583,510.657 266.5,493C 287.986,475.076 311.653,460.41 337.5,449C 382.486,431.783 427.153,413.783 471.5,395C 588.038,341.952 695.371,275.119 793.5,194.5 Z"/></g>
</svg>
