<svg id="svg" version="1.1" xmlns="http://www.w3.org/2000/svg" xmlns:xlink="http://www.w3.org/1999/xlink" width="400" height="400" viewBox="0, 0, 400,400"><g id="svgg"><path id="path0" d="M68.401 126.403 L 68.400 228.607 100.106 260.303 L 131.812 292.000 192.106 292.000 C 225.268 292.000,252.400 291.863,252.400 291.697 C 252.400 291.530,238.132 277.130,220.694 259.697 L 188.988 228.000 160.294 228.000 L 131.600 228.000 131.600 157.705 L 131.600 87.411 100.001 55.805 L 68.401 24.200 68.401 126.403 M225.800 135.011 C 202.964 136.741,183.405 143.807,165.600 156.759 C 156.998 163.016,146.800 173.187,141.560 180.736 C 140.592 182.130,139.405 183.840,138.923 184.536 C 138.441 185.231,138.036 185.923,138.023 186.074 C 138.010 186.224,140.205 187.861,142.900 189.710 C 145.595 191.560,149.870 194.507,152.400 196.259 C 172.451 210.145,180.513 215.578,180.800 215.400 C 180.984 215.286,181.994 213.980,183.044 212.497 C 191.586 200.433,205.742 191.256,220.200 188.407 C 221.520 188.147,223.355 187.769,224.277 187.567 C 225.200 187.365,229.160 187.200,233.077 187.200 C 239.892 187.200,240.826 187.300,248.200 188.811 C 253.176 189.830,261.917 193.598,266.834 196.843 C 290.554 212.499,300.437 241.557,291.306 268.800 C 288.252 277.914,282.135 287.662,275.871 293.400 C 253.865 313.556,223.660 316.191,198.675 300.135 C 195.375 298.014,196.194 297.479,190.772 305.299 C 188.292 308.875,184.887 313.780,183.203 316.200 C 181.520 318.620,178.280 323.300,176.003 326.600 C 173.726 329.900,170.798 334.112,169.496 335.959 C 167.114 339.340,166.130 341.075,166.435 341.355 C 172.770 347.171,192.660 356.203,206.400 359.502 C 211.114 360.634,212.656 360.923,220.000 362.054 C 224.884 362.806,243.380 362.697,248.424 361.887 C 260.079 360.014,267.407 357.963,276.995 353.892 C 291.636 347.676,301.847 340.858,313.335 329.628 C 318.892 324.196,326.019 315.488,328.243 311.413 C 328.487 310.966,329.406 309.430,330.284 308.000 C 347.971 279.200,351.788 244.072,340.770 211.492 C 333.603 190.302,318.292 169.213,301.613 157.559 C 293.724 152.048,290.219 149.948,283.000 146.410 C 268.278 139.194,255.356 135.800,239.600 135.011 C 236.630 134.862,233.840 134.685,233.400 134.618 C 232.960 134.551,229.540 134.728,225.800 135.011 " stroke="none" fill="#0e0e11" fill-rule="evenodd"></path><path id="path1" d="M0.000 200.000 L 0.000 400.000 200.000 400.000 L 400.000 400.000 400.000 200.000 L 400.000 0.000 200.000 0.000 L 0.000 0.000 0.000 200.000 M100.326 54.966 L 132.200 86.733 132.303 157.166 L 132.407 227.600 161.097 227.600 L 189.788 227.600 220.121 257.900 C 252.735 290.479,254.059 291.863,253.167 292.431 C 252.835 292.643,227.563 292.752,192.101 292.696 L 131.602 292.600 99.401 260.401 L 67.200 228.202 67.200 125.701 C 67.200 32.972,67.260 23.200,67.826 23.200 C 68.170 23.200,82.795 37.495,100.326 54.966 M246.400 134.818 C 313.175 142.208,359.554 207.338,344.941 273.200 C 327.519 351.724,237.308 388.707,170.500 344.715 C 164.705 340.898,164.865 341.630,168.626 336.183 C 170.290 333.772,172.675 330.303,173.926 328.473 C 175.177 326.644,177.112 323.854,178.227 322.273 C 179.342 320.693,183.631 314.495,187.757 308.500 C 191.884 302.505,195.389 297.600,195.546 297.600 C 195.704 297.600,197.265 298.513,199.016 299.629 C 255.859 335.852,320.650 269.850,283.265 213.805 C 260.386 179.505,206.181 179.217,183.313 213.273 C 180.860 216.926,181.247 216.989,173.599 211.692 C 169.872 209.112,160.346 202.528,152.430 197.063 C 144.514 191.598,137.830 186.877,137.577 186.572 C 137.018 185.899,141.665 179.069,146.378 173.634 C 171.160 145.060,208.391 130.611,246.400 134.818 " stroke="none" fill="#fbfbfb" fill-rule="evenodd"></path><path id="path2" d="M67.200 125.701 L 67.200 228.202 99.401 260.401 L 131.602 292.600 192.101 292.696 C 227.563 292.752,252.835 292.643,253.167 292.431 C 254.059 291.863,252.735 290.479,220.121 257.900 L 189.788 227.600 161.095 227.600 L 132.402 227.600 132.300 157.500 L 132.198 87.400 132.099 157.700 L 132.000 228.000 160.701 228.000 L 189.402 228.000 221.190 259.790 C 243.069 281.671,252.850 291.710,252.566 291.994 C 252.284 292.276,232.962 292.375,191.874 292.304 L 131.596 292.200 99.598 260.195 L 67.600 228.190 67.600 126.118 C 67.600 69.979,67.741 23.960,67.913 23.854 C 68.086 23.747,82.621 37.889,100.213 55.280 L 132.200 86.901 100.326 55.050 C 82.795 37.533,68.170 23.200,67.826 23.200 C 67.260 23.200,67.200 32.972,67.200 125.701 M229.100 134.297 C 230.695 134.373,233.305 134.373,234.900 134.297 C 236.495 134.221,235.190 134.159,232.000 134.159 C 228.810 134.159,227.505 134.221,229.100 134.297 M222.705 134.683 C 223.202 134.779,223.922 134.775,224.305 134.675 C 224.687 134.575,224.280 134.496,223.400 134.501 C 222.520 134.505,222.207 134.587,222.705 134.683 M242.600 134.796 C 244.685 135.144,248.256 135.312,247.967 135.048 C 247.875 134.965,246.180 134.799,244.200 134.680 C 241.548 134.520,241.127 134.551,242.600 134.796 M219.100 135.082 C 219.595 135.178,220.405 135.178,220.900 135.082 C 221.395 134.987,220.990 134.909,220.000 134.909 C 219.010 134.909,218.605 134.987,219.100 135.082 M214.400 135.600 C 213.043 135.886,213.037 135.895,214.200 135.907 C 214.860 135.915,215.850 135.776,216.400 135.600 C 217.712 135.180,216.396 135.180,214.400 135.600 M250.400 135.600 C 250.950 135.776,251.850 135.917,252.400 135.913 C 253.298 135.906,253.278 135.874,252.200 135.600 C 250.508 135.169,249.056 135.169,250.400 135.600 M206.400 137.200 C 205.596 137.457,205.557 137.523,206.200 137.532 C 206.640 137.538,207.360 137.389,207.800 137.200 C 208.819 136.762,207.768 136.762,206.400 137.200 M258.600 137.200 C 259.040 137.389,259.760 137.538,260.200 137.532 C 260.843 137.523,260.804 137.457,260.000 137.200 C 258.632 136.762,257.581 136.762,258.600 137.200 M203.400 138.000 C 202.896 138.217,202.822 138.344,203.200 138.344 C 203.530 138.344,204.160 138.189,204.600 138.000 C 205.104 137.783,205.178 137.656,204.800 137.656 C 204.470 137.656,203.840 137.811,203.400 138.000 M200.400 138.800 C 199.576 139.064,199.541 139.126,200.200 139.154 C 200.640 139.173,201.270 139.013,201.600 138.800 C 202.301 138.347,201.814 138.347,200.400 138.800 M264.800 138.782 C 265.130 139.005,265.745 139.191,266.167 139.194 C 267.190 139.202,266.871 138.973,265.400 138.644 C 264.524 138.448,264.362 138.485,264.800 138.782 M185.400 144.371 C 184.080 145.013,183.113 145.552,183.252 145.569 C 183.606 145.613,188.000 143.578,188.000 143.371 C 188.000 143.109,187.961 143.124,185.400 144.371 M279.600 144.189 C 279.600 144.506,282.500 145.633,282.728 145.405 C 282.841 145.292,282.835 145.200,282.716 145.200 C 282.596 145.200,281.846 144.928,281.049 144.595 C 280.252 144.262,279.600 144.079,279.600 144.189 M179.900 147.029 C 178.405 147.840,178.496 148.178,180.000 147.400 C 180.660 147.059,181.200 146.694,181.200 146.590 C 181.200 146.332,181.157 146.347,179.900 147.029 M286.400 147.341 C 286.400 147.608,290.090 149.643,290.263 149.471 C 290.340 149.393,289.503 148.839,288.402 148.240 C 287.301 147.640,286.400 147.236,286.400 147.341 M175.700 149.429 C 174.325 150.209,173.200 150.939,173.200 151.053 C 173.200 151.274,177.548 148.906,178.180 148.340 C 178.884 147.710,178.213 148.005,175.700 149.429 M291.000 149.889 C 291.627 150.526,300.000 156.042,300.000 155.818 C 300.000 155.708,298.155 154.386,295.900 152.881 C 291.410 149.884,290.369 149.248,291.000 149.889 M169.296 153.407 C 167.483 154.621,166.000 155.706,166.000 155.819 C 166.000 156.018,171.814 152.242,172.580 151.545 C 173.498 150.711,172.357 151.358,169.296 153.407 M161.500 159.032 C 160.015 160.247,158.800 161.330,158.800 161.438 C 158.800 161.546,160.060 160.616,161.600 159.372 C 164.034 157.406,164.707 156.767,164.300 156.811 C 164.245 156.817,162.985 157.816,161.500 159.032 M301.740 157.103 C 301.896 157.356,302.591 157.967,303.284 158.460 C 303.977 158.954,304.417 159.150,304.260 158.897 C 304.104 158.644,303.409 158.033,302.716 157.540 C 302.023 157.046,301.583 156.850,301.740 157.103 M304.800 159.314 C 304.800 159.418,305.828 160.380,307.084 161.451 C 308.340 162.523,309.239 163.191,309.083 162.936 C 308.739 162.377,304.800 159.046,304.800 159.314 M154.549 165.114 C 152.541 167.031,149.931 169.697,148.749 171.037 C 147.076 172.935,147.254 172.802,149.555 170.437 C 151.181 168.767,153.881 166.103,155.555 164.519 C 157.230 162.934,158.510 161.635,158.400 161.633 C 158.290 161.631,156.557 163.197,154.549 165.114 M314.177 168.100 C 316.610 170.575,318.681 172.549,318.780 172.487 C 318.990 172.355,310.325 163.600,309.984 163.600 C 309.858 163.600,311.745 165.625,314.177 168.100 M322.218 176.900 C 323.906 179.045,325.370 180.800,325.470 180.800 C 325.710 180.800,322.234 176.380,320.501 174.482 C 319.757 173.667,320.530 174.755,322.218 176.900 M144.434 175.900 C 143.538 176.945,142.804 177.959,142.803 178.154 C 142.801 178.349,143.191 177.989,143.668 177.354 C 144.145 176.719,144.989 175.705,145.543 175.100 C 146.097 174.495,146.440 174.000,146.306 174.000 C 146.172 174.000,145.329 174.855,144.434 175.900 M138.785 183.623 C 136.933 186.349,136.928 186.329,139.882 188.353 C 141.831 189.688,141.237 189.039,138.806 187.175 L 137.468 186.150 139.149 183.675 C 140.073 182.314,140.740 181.200,140.630 181.200 C 140.520 181.200,139.689 182.290,138.785 183.623 M327.037 183.300 C 327.849 184.565,328.588 185.600,328.679 185.600 C 328.947 185.600,327.500 183.282,326.490 182.094 C 325.979 181.492,326.225 182.035,327.037 183.300 M231.700 187.494 C 232.745 187.576,234.455 187.576,235.500 187.494 C 236.545 187.412,235.690 187.344,233.600 187.344 C 231.510 187.344,230.655 187.412,231.700 187.494 M226.500 187.887 C 227.105 187.978,228.095 187.978,228.700 187.887 C 229.305 187.795,228.810 187.720,227.600 187.720 C 226.390 187.720,225.895 187.795,226.500 187.887 M238.300 187.882 C 238.795 187.978,239.605 187.978,240.100 187.882 C 240.595 187.787,240.190 187.709,239.200 187.709 C 238.210 187.709,237.805 187.787,238.300 187.882 M221.800 188.410 C 221.266 188.647,221.598 188.686,222.800 188.527 C 223.790 188.396,224.675 188.224,224.767 188.144 C 225.114 187.843,222.564 188.072,221.800 188.410 M242.033 188.147 C 242.125 188.228,242.920 188.404,243.800 188.538 C 244.915 188.707,245.158 188.671,244.600 188.419 C 243.832 188.071,241.690 187.844,242.033 188.147 M330.924 189.400 C 331.262 190.060,331.838 190.960,332.204 191.400 C 332.570 191.840,332.465 191.480,331.970 190.600 C 330.880 188.658,330.064 187.722,330.924 189.400 M218.200 189.200 C 217.181 189.638,218.232 189.638,219.600 189.200 C 220.404 188.943,220.443 188.877,219.800 188.868 C 219.360 188.862,218.640 189.011,218.200 189.200 M245.633 188.947 C 245.725 189.028,246.520 189.204,247.400 189.338 C 248.515 189.507,248.758 189.471,248.200 189.219 C 247.432 188.871,245.290 188.644,245.633 188.947 M214.800 190.018 C 214.362 190.315,214.524 190.352,215.400 190.156 C 216.871 189.827,217.190 189.598,216.167 189.606 C 215.745 189.609,215.130 189.795,214.800 190.018 M249.233 189.743 C 249.325 189.821,250.030 190.001,250.800 190.142 C 251.785 190.323,252.022 190.282,251.600 190.006 C 251.058 189.650,248.837 189.403,249.233 189.743 M144.800 191.676 C 145.682 192.548,152.145 196.959,151.857 196.493 C 151.722 196.274,149.944 194.968,147.906 193.590 C 145.868 192.211,144.470 191.350,144.800 191.676 M207.800 192.778 C 206.040 193.633,204.710 194.347,204.843 194.366 C 204.977 194.385,206.597 193.690,208.443 192.823 C 210.290 191.955,211.620 191.240,211.400 191.235 C 211.180 191.229,209.560 191.923,207.800 192.778 M258.433 192.935 C 258.525 193.009,260.220 193.909,262.200 194.936 C 264.180 195.962,265.440 196.517,265.000 196.169 C 264.131 195.480,258.994 192.800,258.543 192.800 C 258.391 192.800,258.342 192.861,258.433 192.935 M202.500 195.426 C 201.565 195.987,200.800 196.540,200.800 196.655 C 200.800 196.871,203.499 195.338,204.180 194.736 C 204.867 194.128,204.227 194.391,202.500 195.426 M335.078 196.995 C 335.444 197.762,335.814 198.319,335.901 198.232 C 336.084 198.049,334.870 195.600,334.596 195.600 C 334.495 195.600,334.712 196.228,335.078 196.995 M154.800 198.567 C 154.800 198.670,156.515 199.925,158.611 201.356 C 160.707 202.787,162.313 203.783,162.181 203.570 C 161.894 203.105,154.800 198.297,154.800 198.567 M196.411 199.420 C 195.647 199.959,195.197 200.399,195.411 200.398 C 195.625 200.397,196.340 199.953,197.000 199.412 C 198.541 198.149,198.205 198.153,196.411 199.420 M268.400 198.525 C 268.400 198.624,269.061 199.209,269.868 199.825 C 270.676 200.441,271.211 200.741,271.056 200.491 C 270.740 199.979,268.400 198.247,268.400 198.525 M193.710 201.569 C 190.811 203.989,190.314 204.447,190.450 204.575 C 190.532 204.654,191.590 203.838,192.800 202.763 C 194.901 200.896,195.574 200.013,193.710 201.569 M275.829 205.000 C 278.256 207.420,280.826 210.255,281.540 211.300 C 282.254 212.345,282.928 213.200,283.038 213.200 C 283.955 213.200,276.100 204.292,273.095 201.923 C 272.172 201.195,273.402 202.580,275.829 205.000 M338.596 204.700 C 338.751 205.085,339.247 206.349,339.697 207.508 C 340.148 208.668,340.589 209.544,340.676 209.457 C 340.874 209.259,338.791 204.000,338.515 204.000 C 338.405 204.000,338.441 204.315,338.596 204.700 M186.166 208.924 C 183.726 211.895,180.913 216.000,181.318 216.000 C 181.408 216.000,182.293 214.785,183.283 213.300 C 184.274 211.815,185.937 209.655,186.979 208.500 C 188.021 207.345,188.722 206.411,188.537 206.424 C 188.352 206.437,187.285 207.562,186.166 208.924 M168.000 207.676 C 168.882 208.548,175.345 212.959,175.057 212.493 C 174.922 212.274,173.144 210.968,171.106 209.590 C 169.068 208.211,167.670 207.350,168.000 207.676 M179.000 215.365 C 179.660 215.932,180.365 216.397,180.567 216.398 C 181.001 216.400,180.996 216.396,179.200 215.237 L 177.800 214.334 179.000 215.365 M342.456 215.200 C 342.456 215.530,342.611 216.160,342.800 216.600 C 343.017 217.104,343.144 217.178,343.144 216.800 C 343.144 216.470,342.989 215.840,342.800 215.400 C 342.583 214.896,342.456 214.822,342.456 215.200 M285.160 216.600 C 285.834 217.905,286.388 218.628,286.385 218.200 C 286.383 217.980,286.014 217.350,285.564 216.800 C 285.021 216.136,284.885 216.069,285.160 216.600 M343.206 218.233 C 343.209 218.655,343.395 219.270,343.618 219.600 C 343.915 220.038,343.952 219.876,343.756 219.000 C 343.427 217.529,343.198 217.210,343.206 218.233 M287.000 220.000 C 287.341 220.660,287.711 221.200,287.821 221.200 C 287.931 221.200,287.741 220.660,287.400 220.000 C 287.059 219.340,286.689 218.800,286.579 218.800 C 286.469 218.800,286.659 219.340,287.000 220.000 M289.407 225.079 C 290.007 226.514,290.400 227.162,290.400 226.716 C 290.400 226.284,289.185 223.600,288.989 223.600 C 288.879 223.600,289.067 224.266,289.407 225.079 M344.828 224.833 C 344.844 225.365,345.019 226.160,345.219 226.600 C 345.471 227.158,345.507 226.915,345.338 225.800 C 345.055 223.943,344.787 223.436,344.828 224.833 M345.640 229.033 C 345.662 229.675,345.833 230.650,346.020 231.200 C 346.249 231.874,346.284 231.549,346.128 230.200 C 345.869 227.950,345.579 227.259,345.640 229.033 M346.423 234.433 C 346.436 235.185,346.605 236.520,346.798 237.400 C 347.069 238.630,347.098 238.352,346.926 236.200 C 346.687 233.220,346.385 232.158,346.423 234.433 M293.073 237.200 C 293.204 238.190,293.376 239.075,293.456 239.167 C 293.757 239.514,293.528 236.964,293.190 236.200 C 292.953 235.666,292.914 235.998,293.073 237.200 M293.800 248.540 C 293.800 253.106,293.917 256.427,294.060 255.921 C 294.393 254.743,294.387 242.980,294.053 241.419 C 293.914 240.770,293.800 243.975,293.800 248.540 M347.367 248.800 C 347.367 253.090,347.426 254.845,347.498 252.700 C 347.570 250.555,347.570 247.045,347.498 244.900 C 347.426 242.755,347.367 244.510,347.367 248.800 M293.254 258.800 C 293.219 259.350,293.096 260.250,292.983 260.800 L 292.777 261.800 293.207 260.815 C 293.443 260.274,293.565 259.374,293.478 258.815 L 293.320 257.800 293.254 258.800 M346.901 259.400 C 346.905 260.280,346.987 260.593,347.083 260.095 C 347.179 259.598,347.175 258.878,347.075 258.495 C 346.975 258.113,346.896 258.520,346.901 259.400 M346.501 262.600 C 346.505 263.480,346.587 263.793,346.683 263.295 C 346.779 262.798,346.775 262.078,346.675 261.695 C 346.575 261.313,346.496 261.720,346.501 262.600 M292.229 263.429 C 292.081 264.015,292.038 264.572,292.132 264.666 C 292.227 264.760,292.424 264.358,292.571 263.771 C 292.719 263.185,292.762 262.628,292.668 262.534 C 292.573 262.440,292.376 262.842,292.229 263.429 M291.646 265.667 C 291.621 266.034,291.496 266.664,291.370 267.067 C 291.152 267.762,291.163 267.763,291.597 267.087 C 291.848 266.696,291.973 266.066,291.873 265.687 C 291.711 265.068,291.688 265.066,291.646 265.667 M288.475 274.219 C 287.270 276.700,287.405 277.047,288.646 274.661 C 289.201 273.594,289.587 272.653,289.503 272.570 C 289.419 272.486,288.957 273.228,288.475 274.219 M344.200 274.800 C 344.048 275.491,344.007 276.141,344.109 276.242 C 344.211 276.344,344.409 275.853,344.550 275.150 C 344.691 274.447,344.731 273.798,344.641 273.708 C 344.550 273.617,344.352 274.109,344.200 274.800 M343.449 277.815 C 343.312 278.173,343.215 278.766,343.234 279.133 C 343.253 279.500,343.427 279.269,343.621 278.620 C 343.998 277.358,343.865 276.733,343.449 277.815 M342.649 280.615 C 342.512 280.973,342.415 281.566,342.434 281.933 C 342.453 282.300,342.627 282.069,342.821 281.420 C 343.198 280.158,343.065 279.533,342.649 280.615 M284.243 282.163 C 283.674 283.133,282.565 284.771,281.777 285.802 C 280.990 286.834,280.407 287.741,280.483 287.816 C 280.654 287.987,283.469 284.133,284.741 281.987 C 285.258 281.114,285.590 280.400,285.479 280.400 C 285.367 280.400,284.811 281.193,284.243 282.163 M276.000 292.122 C 273.910 294.164,271.480 296.427,270.600 297.152 C 269.150 298.345,269.131 298.383,270.400 297.550 C 271.748 296.664,280.409 288.424,280.000 288.415 C 279.890 288.412,278.090 290.081,276.000 292.122 M337.400 295.061 C 337.064 295.865,336.882 296.615,336.995 296.728 C 337.108 296.841,337.200 296.835,337.200 296.716 C 337.200 296.596,337.472 295.846,337.805 295.049 C 338.138 294.252,338.321 293.600,338.211 293.600 C 338.101 293.600,337.736 294.258,337.400 295.061 M194.391 298.900 L 193.527 300.200 194.541 299.104 C 195.210 298.381,195.801 298.087,196.277 298.242 C 196.881 298.437,196.901 298.404,196.400 298.044 C 195.510 297.404,195.335 297.478,194.391 298.900 M267.144 299.527 C 266.344 300.117,265.354 300.832,264.944 301.115 C 264.535 301.398,264.969 301.227,265.909 300.736 C 266.850 300.244,267.913 299.518,268.271 299.121 C 269.148 298.152,268.879 298.249,267.144 299.527 M201.600 301.564 C 202.150 302.014,202.780 302.383,203.000 302.385 C 203.428 302.388,202.705 301.834,201.400 301.160 C 200.869 300.885,200.936 301.021,201.600 301.564 M190.355 304.700 C 189.649 305.745,188.428 307.492,187.642 308.582 C 186.855 309.672,186.438 310.423,186.715 310.252 C 187.261 309.915,192.144 302.800,191.830 302.800 C 191.724 302.800,191.061 303.655,190.355 304.700 M332.600 304.800 C 332.259 305.460,332.069 306.000,332.179 306.000 C 332.289 306.000,332.659 305.460,333.000 304.800 C 333.341 304.140,333.531 303.600,333.421 303.600 C 333.311 303.600,332.941 304.140,332.600 304.800 M206.800 304.189 C 206.800 304.506,209.700 305.633,209.928 305.405 C 210.041 305.292,210.035 305.200,209.916 305.200 C 209.796 305.200,209.046 304.928,208.249 304.595 C 207.452 304.262,206.800 304.079,206.800 304.189 M257.800 304.778 C 256.920 305.195,256.313 305.550,256.451 305.568 C 256.840 305.618,259.600 304.414,259.600 304.195 C 259.600 303.927,259.599 303.927,257.800 304.778 M252.200 306.800 C 251.696 307.017,251.622 307.144,252.000 307.144 C 252.330 307.144,252.960 306.989,253.400 306.800 C 253.904 306.583,253.978 306.456,253.600 306.456 C 253.270 306.456,252.640 306.611,252.200 306.800 M331.108 307.300 C 330.233 308.649,329.448 310.256,329.887 309.800 C 330.448 309.217,332.098 306.400,331.879 306.400 C 331.776 306.400,331.429 306.805,331.108 307.300 M215.200 307.582 C 215.530 307.805,216.145 307.991,216.567 307.994 C 217.590 308.002,217.271 307.773,215.800 307.444 C 214.924 307.248,214.762 307.285,215.200 307.582 M218.200 308.400 C 218.640 308.589,219.360 308.738,219.800 308.732 C 220.443 308.723,220.404 308.657,219.600 308.400 C 218.232 307.962,217.181 307.962,218.200 308.400 M246.400 308.400 C 245.596 308.657,245.557 308.723,246.200 308.732 C 246.640 308.738,247.360 308.589,247.800 308.400 C 248.819 307.962,247.768 307.962,246.400 308.400 M222.000 309.187 C 222.991 309.517,225.887 309.735,225.567 309.454 C 225.475 309.374,224.410 309.206,223.200 309.081 C 221.780 308.934,221.354 308.971,222.000 309.187 M242.400 309.200 C 241.033 309.488,241.028 309.495,242.200 309.519 C 242.860 309.533,243.760 309.389,244.200 309.200 C 245.162 308.787,244.364 308.787,242.400 309.200 M227.856 310.077 C 229.751 310.417,234.969 310.404,238.200 310.051 C 239.678 309.890,237.855 309.791,233.456 309.795 C 229.526 309.798,227.006 309.925,227.856 310.077 M327.037 313.900 C 326.225 315.165,325.979 315.708,326.490 315.106 C 327.500 313.918,328.947 311.600,328.679 311.600 C 328.588 311.600,327.849 312.635,327.037 313.900 M181.977 316.834 C 180.634 318.832,179.594 320.526,179.667 320.598 C 179.740 320.669,180.926 319.034,182.302 316.964 C 183.678 314.894,184.718 313.200,184.612 313.200 C 184.507 313.200,183.321 314.835,181.977 316.834 M322.833 319.558 C 322.081 320.571,321.775 321.146,322.152 320.836 C 322.971 320.161,324.547 318.003,324.344 317.835 C 324.265 317.770,323.585 318.545,322.833 319.558 M318.575 324.900 L 317.400 326.200 318.700 325.025 C 319.415 324.379,320.000 323.794,320.000 323.725 C 320.000 323.416,319.670 323.688,318.575 324.900 M173.979 328.431 C 173.071 329.768,172.389 330.922,172.464 330.997 C 172.539 331.071,173.366 329.977,174.303 328.566 C 175.239 327.155,175.921 326.000,175.817 326.000 C 175.714 326.000,174.887 327.094,173.979 328.431 M313.686 329.824 C 313.183 330.361,312.927 330.800,313.116 330.800 C 313.306 330.800,313.883 330.350,314.400 329.800 C 314.917 329.250,315.173 328.811,314.970 328.824 C 314.766 328.838,314.189 329.288,313.686 329.824 M311.170 332.253 C 310.636 332.831,309.156 334.181,307.879 335.253 C 306.603 336.324,305.719 337.200,305.915 337.200 C 306.312 337.200,312.735 331.248,312.370 331.219 C 312.243 331.208,311.703 331.674,311.170 332.253 M167.287 338.100 C 165.827 340.256,165.512 340.800,165.720 340.800 C 165.812 340.800,166.544 339.810,167.347 338.600 C 168.151 337.390,168.725 336.400,168.623 336.400 C 168.522 336.400,167.920 337.165,167.287 338.100 M302.700 339.435 C 301.435 340.442,300.400 341.351,300.400 341.456 C 300.400 341.561,301.480 340.816,302.800 339.800 C 304.870 338.207,305.516 337.591,305.100 337.603 C 305.045 337.605,303.965 338.429,302.700 339.435 M165.800 341.489 C 166.196 341.891,174.046 347.150,175.200 347.787 C 176.794 348.665,174.616 347.051,170.800 344.525 C 166.172 341.461,165.178 340.858,165.800 341.489 M298.247 342.798 C 296.345 344.237,295.944 344.647,297.000 344.074 C 297.917 343.576,300.301 341.630,300.000 341.626 C 299.890 341.624,299.101 342.151,298.247 342.798 M294.193 345.456 C 292.152 346.809,291.432 347.523,293.026 346.614 C 294.430 345.814,296.301 344.422,295.993 344.409 C 295.879 344.404,295.069 344.875,294.193 345.456 M176.400 348.420 C 177.787 349.361,178.578 349.635,177.600 348.836 C 177.050 348.386,176.420 348.017,176.200 348.015 C 175.980 348.013,176.070 348.196,176.400 348.420 M288.700 348.629 C 287.205 349.440,287.296 349.778,288.800 349.000 C 289.460 348.659,290.000 348.294,290.000 348.190 C 290.000 347.932,289.957 347.947,288.700 348.629 M185.615 353.142 C 186.532 353.742,190.664 355.316,190.200 354.889 C 189.840 354.557,187.133 353.402,185.600 352.926 C 185.092 352.768,185.094 352.801,185.615 353.142 M279.200 353.400 C 278.650 353.714,278.380 353.972,278.600 353.972 C 278.820 353.972,279.450 353.714,280.000 353.400 C 280.550 353.086,280.820 352.828,280.600 352.828 C 280.380 352.828,279.750 353.086,279.200 353.400 M200.800 358.800 C 202.168 359.238,203.219 359.238,202.200 358.800 C 201.760 358.611,201.040 358.462,200.600 358.468 C 199.957 358.477,199.996 358.543,200.800 358.800 M264.400 358.818 C 263.962 359.115,264.124 359.152,265.000 358.956 C 266.471 358.627,266.790 358.398,265.767 358.406 C 265.345 358.409,264.730 358.595,264.400 358.818 M203.233 359.344 C 203.325 359.423,203.940 359.608,204.600 359.756 C 205.476 359.952,205.638 359.915,205.200 359.618 C 204.660 359.253,202.832 358.998,203.233 359.344 M261.600 359.618 C 261.162 359.915,261.324 359.952,262.200 359.756 C 263.671 359.427,263.990 359.198,262.967 359.206 C 262.545 359.209,261.930 359.395,261.600 359.618 M206.800 360.400 C 208.168 360.838,209.219 360.838,208.200 360.400 C 207.760 360.211,207.040 360.062,206.600 360.068 C 205.957 360.077,205.996 360.143,206.800 360.400 M258.200 360.400 C 257.181 360.838,258.232 360.838,259.600 360.400 C 260.404 360.143,260.443 360.077,259.800 360.068 C 259.360 360.062,258.640 360.211,258.200 360.400 M215.000 362.000 C 215.660 362.168,216.650 362.305,217.200 362.305 C 218.092 362.305,218.070 362.272,217.000 362.000 C 216.340 361.832,215.350 361.695,214.800 361.695 C 213.908 361.695,213.930 361.728,215.000 362.000 M251.300 361.876 C 251.685 361.976,252.315 361.976,252.700 361.876 C 253.085 361.775,252.770 361.693,252.000 361.693 C 251.230 361.693,250.915 361.775,251.300 361.876 M219.900 362.682 C 220.395 362.778,221.205 362.778,221.700 362.682 C 222.195 362.587,221.790 362.509,220.800 362.509 C 219.810 362.509,219.405 362.587,219.900 362.682 M245.305 362.687 C 245.914 362.779,246.814 362.777,247.305 362.682 C 247.797 362.587,247.300 362.511,246.200 362.514 C 245.100 362.517,244.697 362.595,245.305 362.687 M223.705 363.087 C 224.314 363.179,225.214 363.177,225.705 363.082 C 226.197 362.987,225.700 362.911,224.600 362.914 C 223.500 362.917,223.097 362.995,223.705 363.087 M241.905 363.083 C 242.402 363.179,243.122 363.175,243.505 363.075 C 243.887 362.975,243.480 362.896,242.600 362.901 C 241.720 362.905,241.407 362.987,241.905 363.083 M234.100 363.494 C 235.145 363.576,236.855 363.576,237.900 363.494 C 238.945 363.412,238.090 363.344,236.000 363.344 C 233.910 363.344,233.055 363.412,234.100 363.494 " stroke="none" fill="#a4a4a4" fill-rule="evenodd"></path><path id="path3" d="M68.000 126.299 L 68.000 228.598 99.699 260.299 C 117.134 277.735,131.491 292.000,131.605 292.000 C 131.719 292.000,117.544 277.737,100.106 260.303 L 68.400 228.607 68.400 126.404 L 68.400 24.201 99.900 55.701 L 131.400 87.201 131.602 157.700 L 131.804 228.200 131.902 157.799 L 132.000 87.398 100.299 55.699 C 82.864 38.265,68.464 24.000,68.299 24.000 C 68.135 24.000,68.000 70.035,68.000 126.299 M227.500 134.693 C 228.435 134.777,229.965 134.777,230.900 134.693 C 231.835 134.609,231.070 134.540,229.200 134.540 C 227.330 134.540,226.565 134.609,227.500 134.693 M234.691 134.689 C 235.401 134.777,236.661 134.779,237.491 134.692 C 238.321 134.605,237.740 134.533,236.200 134.531 C 234.660 134.529,233.981 134.600,234.691 134.689 M223.505 135.083 C 224.002 135.179,224.722 135.175,225.105 135.075 C 225.487 134.975,225.080 134.896,224.200 134.901 C 223.320 134.905,223.007 134.987,223.505 135.083 M240.105 135.087 C 240.714 135.179,241.614 135.177,242.105 135.082 C 242.597 134.987,242.100 134.911,241.000 134.914 C 239.900 134.917,239.497 134.995,240.105 135.087 M217.200 135.600 C 216.408 135.854,216.367 135.920,217.000 135.920 C 217.440 135.920,218.250 135.776,218.800 135.600 C 219.592 135.346,219.633 135.280,219.000 135.280 C 218.560 135.280,217.750 135.424,217.200 135.600 M246.500 135.476 C 246.885 135.576,247.515 135.576,247.900 135.476 C 248.285 135.375,247.970 135.293,247.200 135.293 C 246.430 135.293,246.115 135.375,246.500 135.476 M212.200 136.400 C 211.181 136.838,212.232 136.838,213.600 136.400 C 214.404 136.143,214.443 136.077,213.800 136.068 C 213.360 136.062,212.640 136.211,212.200 136.400 M252.800 136.400 C 254.168 136.838,255.219 136.838,254.200 136.400 C 253.760 136.211,253.040 136.062,252.600 136.068 C 251.957 136.077,251.996 136.143,252.800 136.400 M208.200 137.200 C 207.181 137.638,208.232 137.638,209.600 137.200 C 210.404 136.943,210.443 136.877,209.800 136.868 C 209.360 136.862,208.640 137.011,208.200 137.200 M260.200 138.000 C 260.640 138.189,261.270 138.344,261.600 138.344 C 261.978 138.344,261.904 138.217,261.400 138.000 C 260.960 137.811,260.330 137.656,260.000 137.656 C 259.622 137.656,259.696 137.783,260.200 138.000 M180.700 147.029 C 179.205 147.840,179.296 148.178,180.800 147.400 C 181.460 147.059,182.000 146.694,182.000 146.590 C 182.000 146.332,181.957 146.347,180.700 147.029 M170.500 153.026 C 169.565 153.587,168.800 154.140,168.800 154.255 C 168.800 154.471,171.499 152.938,172.180 152.336 C 172.867 151.728,172.227 151.991,170.500 153.026 M167.000 155.435 L 165.800 156.466 167.100 155.606 C 167.815 155.133,168.400 154.668,168.400 154.573 C 168.400 154.273,168.231 154.378,167.000 155.435 M305.200 160.092 C 305.200 160.183,306.415 161.317,307.900 162.611 C 309.385 163.905,310.240 164.547,309.800 164.038 C 308.919 163.017,305.200 159.827,305.200 160.092 M152.393 167.900 L 147.800 172.600 152.500 168.007 C 156.866 163.740,157.382 163.200,157.093 163.200 C 157.035 163.200,154.920 165.315,152.393 167.900 M314.000 168.200 C 315.417 169.630,316.667 170.800,316.777 170.800 C 316.887 170.800,315.817 169.630,314.400 168.200 C 312.983 166.770,311.733 165.600,311.623 165.600 C 311.513 165.600,312.583 166.770,314.000 168.200 M317.600 172.125 C 317.600 172.194,318.185 172.779,318.900 173.425 L 320.200 174.600 319.025 173.300 C 317.930 172.088,317.600 171.816,317.600 172.125 M145.968 174.700 C 143.609 177.343,143.074 178.000,143.282 178.000 C 143.403 178.000,144.349 177.010,145.382 175.800 C 147.296 173.560,147.755 172.698,145.968 174.700 M326.214 182.800 C 327.941 185.406,328.335 185.845,327.472 184.200 C 327.126 183.540,326.373 182.460,325.799 181.800 C 325.131 181.031,325.280 181.390,326.214 182.800 M139.999 182.500 C 139.410 183.304,139.313 183.584,139.745 183.233 C 140.401 182.700,141.393 181.200,141.089 181.200 C 141.013 181.200,140.522 181.785,139.999 182.500 M138.207 185.046 C 137.557 186.038,137.558 186.126,138.239 186.746 C 138.905 187.353,138.920 187.352,138.451 186.727 C 138.037 186.174,138.067 185.869,138.619 185.027 C 138.989 184.462,139.202 184.000,139.092 184.000 C 138.982 184.000,138.584 184.471,138.207 185.046 M224.400 187.613 C 223.754 187.829,224.180 187.866,225.600 187.719 C 226.810 187.594,227.875 187.426,227.967 187.346 C 228.287 187.065,225.391 187.283,224.400 187.613 M239.300 187.476 C 239.685 187.576,240.315 187.576,240.700 187.476 C 241.085 187.375,240.770 187.293,240.000 187.293 C 239.230 187.293,238.915 187.375,239.300 187.476 M220.200 188.400 C 219.696 188.617,219.622 188.744,220.000 188.744 C 220.330 188.744,220.960 188.589,221.400 188.400 C 221.904 188.183,221.978 188.056,221.600 188.056 C 221.270 188.056,220.640 188.211,220.200 188.400 M245.000 188.400 C 245.440 188.589,246.070 188.744,246.400 188.744 C 246.778 188.744,246.704 188.617,246.200 188.400 C 245.760 188.211,245.130 188.056,244.800 188.056 C 244.422 188.056,244.496 188.183,245.000 188.400 M216.600 189.200 C 216.096 189.417,216.022 189.544,216.400 189.544 C 216.730 189.544,217.360 189.389,217.800 189.200 C 218.304 188.983,218.378 188.856,218.000 188.856 C 217.670 188.856,217.040 189.011,216.600 189.200 M248.600 189.200 C 249.040 189.389,249.670 189.544,250.000 189.544 C 250.378 189.544,250.304 189.417,249.800 189.200 C 249.360 189.011,248.730 188.856,248.400 188.856 C 248.022 188.856,248.096 188.983,248.600 189.200 M331.230 190.600 C 331.724 191.480,332.300 192.380,332.510 192.600 C 333.109 193.228,331.739 190.694,330.996 189.800 C 330.630 189.360,330.735 189.720,331.230 190.600 M144.097 190.633 C 144.240 190.864,145.492 191.834,146.878 192.788 C 148.265 193.742,149.130 194.255,148.800 193.928 C 147.871 193.008,143.804 190.159,144.097 190.633 M154.497 197.833 C 154.640 198.064,155.892 199.034,157.278 199.988 C 158.665 200.942,159.530 201.455,159.200 201.128 C 158.271 200.208,154.204 197.359,154.497 197.833 M268.000 197.725 C 268.000 197.824,268.661 198.409,269.468 199.025 C 270.276 199.641,270.811 199.941,270.656 199.691 C 270.340 199.179,268.000 197.447,268.000 197.725 M194.300 200.632 C 192.815 201.847,191.600 202.930,191.600 203.038 C 191.600 203.146,192.860 202.216,194.400 200.972 C 196.834 199.006,197.507 198.367,197.100 198.411 C 197.045 198.417,195.785 199.416,194.300 200.632 M274.600 203.200 C 275.459 204.080,276.252 204.800,276.362 204.800 C 276.472 204.800,275.859 204.080,275.000 203.200 C 274.141 202.320,273.348 201.600,273.238 201.600 C 273.128 201.600,273.741 202.320,274.600 203.200 M188.783 205.500 L 187.000 207.400 188.993 205.600 C 190.088 204.610,191.063 203.755,191.159 203.700 C 191.255 203.645,191.161 203.600,190.950 203.600 C 190.739 203.600,189.764 204.455,188.783 205.500 M277.600 206.125 C 277.600 206.194,278.185 206.779,278.900 207.425 L 280.200 208.600 279.025 207.300 C 277.930 206.088,277.600 205.816,277.600 206.125 M168.800 207.762 C 168.800 207.872,169.610 208.519,170.600 209.200 C 171.590 209.881,172.400 210.348,172.400 210.238 C 172.400 210.128,171.590 209.481,170.600 208.800 C 169.610 208.119,168.800 207.652,168.800 207.762 M281.802 211.100 C 282.861 212.475,283.801 213.600,283.889 213.600 C 284.170 213.600,281.499 210.032,280.671 209.302 C 280.233 208.916,280.742 209.725,281.802 211.100 M182.414 213.380 C 180.777 215.759,180.625 215.812,179.002 214.575 C 178.231 213.986,177.600 213.595,177.600 213.705 C 177.600 214.475,180.488 216.025,181.052 215.557 C 181.766 214.964,184.135 211.600,183.838 211.600 C 183.728 211.600,183.087 212.401,182.414 213.380 M344.868 226.800 C 344.888 227.839,345.518 229.546,345.532 228.600 C 345.538 228.160,345.389 227.440,345.200 227.000 C 344.989 226.510,344.861 226.432,344.868 226.800 M220.797 259.900 C 238.288 277.445,252.682 291.748,252.783 291.684 C 252.984 291.556,189.527 228.000,189.198 228.000 C 189.085 228.000,203.305 242.355,220.797 259.900 M346.501 238.600 C 346.505 239.480,346.587 239.793,346.683 239.295 C 346.779 238.798,346.775 238.078,346.675 237.695 C 346.575 237.313,346.496 237.720,346.501 238.600 M346.920 242.400 C 346.920 243.610,346.995 244.105,347.087 243.500 C 347.178 242.895,347.178 241.905,347.087 241.300 C 346.995 240.695,346.920 241.190,346.920 242.400 M294.542 248.600 C 294.541 250.580,294.608 251.440,294.692 250.512 C 294.776 249.584,294.777 247.964,294.695 246.912 C 294.612 245.860,294.543 246.620,294.542 248.600 M346.928 254.400 C 346.928 255.830,347.001 256.415,347.089 255.700 C 347.178 254.985,347.178 253.815,347.089 253.100 C 347.001 252.385,346.928 252.970,346.928 254.400 M293.822 257.422 C 293.672 258.225,293.628 258.962,293.726 259.060 C 293.824 259.157,294.027 258.581,294.178 257.778 C 294.328 256.975,294.372 256.238,294.274 256.140 C 294.176 256.043,293.973 256.619,293.822 257.422 M346.501 258.600 C 346.505 259.480,346.587 259.793,346.683 259.295 C 346.779 258.798,346.775 258.078,346.675 257.695 C 346.575 257.313,346.496 257.720,346.501 258.600 M293.029 261.829 C 292.881 262.415,292.838 262.972,292.932 263.066 C 293.027 263.160,293.224 262.758,293.371 262.171 C 293.519 261.585,293.562 261.028,293.468 260.934 C 293.373 260.840,293.176 261.242,293.029 261.829 M345.050 269.250 C 344.909 269.953,344.869 270.602,344.959 270.692 C 345.050 270.783,345.248 270.291,345.400 269.600 C 345.552 268.909,345.593 268.259,345.491 268.158 C 345.389 268.056,345.191 268.547,345.050 269.250 M283.037 284.700 C 282.225 285.965,281.979 286.508,282.490 285.906 C 283.500 284.718,284.947 282.400,284.679 282.400 C 284.588 282.400,283.849 283.435,283.037 284.700 M279.200 289.400 C 278.228 290.390,277.523 291.200,277.633 291.200 C 277.743 291.200,278.628 290.390,279.600 289.400 C 280.572 288.410,281.277 287.600,281.167 287.600 C 281.057 287.600,280.172 288.410,279.200 289.400 M273.375 295.300 L 272.200 296.600 273.598 295.400 C 274.367 294.740,275.072 294.155,275.165 294.100 C 275.257 294.045,275.157 294.000,274.942 294.000 C 274.726 294.000,274.021 294.585,273.375 295.300 M191.525 303.700 C 189.904 305.874,188.640 307.836,189.271 307.200 C 190.086 306.379,192.913 302.400,192.682 302.400 C 192.579 302.400,192.059 302.985,191.525 303.700 M332.600 304.000 C 332.259 304.660,332.069 305.200,332.179 305.200 C 332.289 305.200,332.659 304.660,333.000 304.000 C 333.341 303.340,333.531 302.800,333.421 302.800 C 333.311 302.800,332.941 303.340,332.600 304.000 M220.000 309.200 C 220.550 309.376,221.360 309.520,221.800 309.520 C 222.433 309.520,222.392 309.454,221.600 309.200 C 221.050 309.024,220.240 308.880,219.800 308.880 C 219.167 308.880,219.208 308.946,220.000 309.200 M244.600 309.200 C 243.581 309.638,244.632 309.638,246.000 309.200 C 246.804 308.943,246.843 308.877,246.200 308.868 C 245.760 308.862,245.040 309.011,244.600 309.200 M238.705 310.283 C 239.202 310.379,239.922 310.375,240.305 310.275 C 240.687 310.175,240.280 310.096,239.400 310.101 C 238.520 310.105,238.207 310.187,238.705 310.283 M326.784 313.623 C 326.305 314.296,325.979 314.913,326.061 314.994 C 326.143 315.076,326.614 314.526,327.108 313.771 C 328.223 312.071,327.971 311.956,326.784 313.623 M184.325 314.100 C 182.704 316.274,181.440 318.236,182.071 317.600 C 182.886 316.779,185.713 312.800,185.482 312.800 C 185.379 312.800,184.859 313.385,184.325 314.100 M313.969 329.004 C 311.202 331.752,309.044 334.000,309.175 334.000 C 309.305 334.000,311.657 331.750,314.400 329.000 C 317.143 326.250,319.301 324.002,319.194 324.004 C 319.087 324.006,316.736 326.256,313.969 329.004 M175.200 327.200 C 174.730 327.860,174.436 328.400,174.546 328.400 C 174.656 328.400,175.130 327.860,175.600 327.200 C 176.070 326.540,176.364 326.000,176.254 326.000 C 176.144 326.000,175.670 326.540,175.200 327.200 M168.000 337.600 C 167.530 338.260,167.236 338.800,167.346 338.800 C 167.456 338.800,167.930 338.260,168.400 337.600 C 168.870 336.940,169.164 336.400,169.054 336.400 C 168.944 336.400,168.470 336.940,168.000 337.600 M303.800 338.249 L 301.800 340.081 304.000 338.360 C 305.210 337.413,306.275 336.585,306.367 336.519 C 306.458 336.454,306.368 336.404,306.167 336.408 C 305.965 336.413,304.900 337.241,303.800 338.249 M166.388 340.022 C 166.146 340.474,166.007 341.022,166.080 341.239 C 166.152 341.457,166.418 341.087,166.671 340.417 C 167.197 339.025,167.039 338.805,166.388 340.022 M298.800 342.049 C 297.406 343.271,297.405 343.272,298.688 342.419 C 299.396 341.948,300.082 341.391,300.212 341.181 C 300.597 340.557,300.277 340.754,298.800 342.049 M294.296 344.950 C 292.375 346.131,291.838 346.689,293.400 345.881 C 294.654 345.233,296.345 344.026,296.000 344.025 C 295.890 344.025,295.123 344.441,294.296 344.950 M173.400 346.196 C 174.294 346.939,176.828 348.309,176.200 347.710 C 175.980 347.500,175.080 346.924,174.200 346.430 C 173.320 345.935,172.960 345.830,173.400 346.196 M178.400 348.979 C 178.400 349.089,178.940 349.459,179.600 349.800 C 180.260 350.141,180.800 350.331,180.800 350.221 C 180.800 350.111,180.260 349.741,179.600 349.400 C 178.940 349.059,178.400 348.869,178.400 348.979 M205.400 359.600 C 205.840 359.789,206.470 359.944,206.800 359.944 C 207.178 359.944,207.104 359.817,206.600 359.600 C 206.160 359.411,205.530 359.256,205.200 359.256 C 204.822 359.256,204.896 359.383,205.400 359.600 M256.600 360.400 C 256.096 360.617,256.022 360.744,256.400 360.744 C 256.730 360.744,257.360 360.589,257.800 360.400 C 258.304 360.183,258.378 360.056,258.000 360.056 C 257.670 360.056,257.040 360.211,256.600 360.400 M213.000 361.200 C 213.440 361.389,214.160 361.538,214.600 361.532 C 215.243 361.523,215.204 361.457,214.400 361.200 C 213.032 360.762,211.981 360.762,213.000 361.200 M217.800 362.000 C 218.460 362.168,219.540 362.306,220.200 362.307 C 221.209 362.308,221.145 362.255,219.800 361.977 C 217.774 361.558,216.137 361.577,217.800 362.000 M225.111 362.693 C 226.051 362.778,227.491 362.777,228.311 362.691 C 229.130 362.605,228.360 362.536,226.600 362.537 C 224.840 362.539,224.170 362.609,225.111 362.693 M235.400 362.800 L 230.200 363.037 235.000 363.089 C 237.640 363.117,240.610 362.997,241.600 362.820 C 243.742 362.439,243.354 362.438,235.400 362.800 " stroke="none" fill="#747475" fill-rule="evenodd"></path><path id="path4" d="M67.785 24.100 C 67.681 24.375,67.641 70.410,67.698 126.400 L 67.800 228.200 68.000 125.900 C 68.110 69.635,68.149 23.600,68.087 23.600 C 68.026 23.600,67.889 23.825,67.785 24.100 M112.000 67.400 C 122.888 78.290,131.887 87.200,131.997 87.200 C 132.107 87.200,123.288 78.290,112.400 67.400 C 101.512 56.510,92.513 47.600,92.403 47.600 C 92.293 47.600,101.112 56.510,112.000 67.400 M152.378 167.500 L 151.000 169.000 152.500 167.622 C 153.325 166.863,154.000 166.188,154.000 166.122 C 154.000 165.816,153.662 166.104,152.378 167.500 M275.978 292.700 L 274.600 294.200 276.100 292.822 C 277.496 291.538,277.784 291.200,277.478 291.200 C 277.412 291.200,276.737 291.875,275.978 292.700 M162.300 292.300 C 178.855 292.358,205.945 292.358,222.500 292.300 C 239.055 292.242,225.510 292.195,192.400 292.195 C 159.290 292.195,145.745 292.242,162.300 292.300 M227.300 363.087 C 227.905 363.178,228.895 363.178,229.500 363.087 C 230.105 362.995,229.610 362.920,228.400 362.920 C 227.190 362.920,226.695 362.995,227.300 363.087 " stroke="none" fill="#828484" fill-rule="evenodd"></path></g></svg>