<svg xmlns="http://www.w3.org/2000/svg" xmlns:xlink="http://www.w3.org/1999/xlink" width="500" zoomAndPan="magnify" viewBox="0 0 375 374.999991" height="500" preserveAspectRatio="xMidYMid meet" version="1.0"><defs><clipPath id="d810a69b58"><path d="M 128 126 L 326 126 L 326 341 L 128 341 Z M 128 126 " clip-rule="nonzero"/></clipPath><clipPath id="dcfb791ec5"><path d="M 69.269531 260.515625 L 191.242188 84.070312 L 367.6875 206.039062 L 245.71875 382.484375 Z M 69.269531 260.515625 " clip-rule="nonzero"/></clipPath><clipPath id="a29422a692"><path d="M 191.285156 84 L 69.316406 260.449219 L 245.765625 382.417969 L 367.734375 205.972656 Z M 191.285156 84 " clip-rule="nonzero"/></clipPath><clipPath id="b4907e486c"><path d="M 63.25 214 L 238 214 L 238 274.09375 L 63.25 274.09375 Z M 63.25 214 " clip-rule="nonzero"/></clipPath><clipPath id="538b0ece17"><path d="M 63.25 21.34375 L 124 21.34375 L 124 274.09375 L 63.25 274.09375 Z M 63.25 21.34375 " clip-rule="nonzero"/></clipPath></defs><g clip-path="url(#d810a69b58)"><g clip-path="url(#dcfb791ec5)"><g clip-path="url(#a29422a692)"><path fill="#000000" d="M 183.386719 279.195312 L 185.644531 280.761719 C 211.855469 298.875 247.910156 292.292969 266.023438 266.09375 C 284.125 239.90625 277.558594 203.867188 251.386719 185.746094 C 225.183594 167.664062 189.152344 174.253906 171.050781 200.441406 L 169.488281 202.703125 L 128.757812 174.550781 L 130.320312 172.289062 C 163.925781 123.671875 230.855469 111.414062 279.585938 145.039062 C 328.175781 178.6875 340.359375 245.628906 306.753906 294.246094 C 273.113281 342.914062 206.152344 355.136719 157.488281 321.496094 L 155.226562 319.933594 L 183.386719 279.195312 " fill-opacity="1" fill-rule="nonzero"/></g></g></g><g clip-path="url(#b4907e486c)"><path fill="#000000" d="M 237.957031 274.429688 L 123.65625 274.429688 L 63.289062 214.058594 L 177.589844 214.058594 Z M 237.957031 274.429688 " fill-opacity="1" fill-rule="evenodd"/></g><g clip-path="url(#538b0ece17)"><path fill="#212529" d="M 123.65625 81.710938 L 123.65625 274.429688 L 63.289062 214.058594 L 63.289062 21.34375 Z M 123.65625 81.710938 " fill-opacity="1" fill-rule="evenodd"/></g></svg>