<?xml version="1.0" encoding="utf-8"?>
<!-- Generator: Adobe Illustrator 24.1.1, SVG Export Plug-In . SVG Version: 6.00 Build 0)  -->
<svg version="1.1" id="Layer_1" xmlns="http://www.w3.org/2000/svg" xmlns:xlink="http://www.w3.org/1999/xlink" x="0px" y="0px"
	 viewBox="0 0 512 512" style="enable-background:new 0 0 512 512;" xml:space="preserve">
<style type="text/css">
	.st0{fill:#555555;}
</style>
<g>
	<path class="st0" d="M255.8,270.6c63.6,0,115.2-51.6,115.2-115.2S319.4,40.3,255.8,40.3c-63.6,0-115.2,51.6-115.2,115.2
		S192.2,270.6,255.8,270.6z M256,0c84.8,0,153.6,68.8,153.6,153.6c0,56.4-30.4,105.7-75.8,132.4c94.4,28.4,165.3,108,178,206.8
		c1.2,9.4-5.8,17.9-15.6,19.1c-9.8,1.1-18.8-5.5-20-14.9c-13.8-107.3-106.7-188-219.4-188c-113.3,0-207.4,80.9-221.2,188
		c-1.2,9.4-10.1,16-20,14.9S-1,502.2,0.2,492.8c12.7-98.4,84-177.9,178.5-206.5c-45.6-26.6-76.3-76.1-76.3-132.7
		C102.4,68.8,171.2,0,256,0z"/>
</g>
</svg>
